<svg width="35" height="35" viewBox="0 0 35 35" fill="none" xmlns="http://www.w3.org/2000/svg">
<g clip-path="url(#clip0_404_212)">
<path d="M7.1688 32.0833C5.18474 32.0833 3.49392 31.3841 2.09635 29.9855C0.698785 28.5872 0 26.896 0 24.912C0 22.9279 0.699271 21.2371 2.09781 19.8395C3.49611 18.442 5.18729 17.7432 7.17135 17.7432C9.15542 17.7432 10.8462 18.4423 12.2438 19.8406C13.6414 21.2392 14.3402 22.9305 14.3402 24.9145C14.3402 26.8986 13.641 28.5894 12.2427 29.987C10.8442 31.3846 9.15286 32.0833 7.1688 32.0833ZM7.17026 29.6527C8.4988 29.6527 9.62087 29.195 10.5365 28.2796C11.452 27.364 11.9098 26.2419 11.9098 24.9131C11.9098 23.5845 11.452 22.4625 10.5365 21.5469C9.62087 20.6313 8.4988 20.1735 7.17026 20.1735C5.84148 20.1735 4.71929 20.6313 3.8037 21.5469C2.88835 22.4625 2.43068 23.5845 2.43068 24.9131C2.43068 26.2419 2.88835 27.364 3.8037 28.2796C4.71929 29.195 5.84148 29.6527 7.17026 29.6527ZM16.2848 27.5625V20.2708L11.4479 16.0172C11.1725 15.7824 10.9699 15.5023 10.8402 15.1769C10.7106 14.8514 10.6458 14.5091 10.6458 14.1498C10.6458 13.7906 10.7167 13.4551 10.8584 13.1432C11.0003 12.8314 11.1968 12.5498 11.4479 12.2985L15.7015 8.04526C15.9769 7.76964 16.2875 7.56705 16.6334 7.4375C16.9793 7.30795 17.3418 7.24318 17.7209 7.24318C18.1003 7.24318 18.4621 7.30795 18.8063 7.4375C19.1507 7.56705 19.4606 7.76964 19.736 8.04526L22.5557 10.8646C23.2686 11.5775 24.0807 12.1446 24.9922 12.5661C25.9036 12.9873 26.8658 13.1979 27.8786 13.1979V15.6286C26.5219 15.6286 25.2307 15.3612 24.0053 14.8265C22.7795 14.2918 21.6887 13.5463 20.7328 12.5902L19.3714 11.2292L15.5068 15.1182L18.7152 18.5453V27.5625H16.2848ZM22.5819 7.68068C21.827 7.68068 21.1802 7.41186 20.6416 6.87422C20.1028 6.33682 19.8333 5.69078 19.8333 4.93609C19.8333 4.18116 20.102 3.53439 20.6394 2.99578C21.1771 2.45693 21.8232 2.1875 22.5779 2.1875C23.3326 2.1875 23.9794 2.4562 24.5182 2.99359C25.0571 3.53123 25.3265 4.1774 25.3265 4.93208C25.3265 5.68677 25.0577 6.33354 24.5201 6.8724C23.9827 7.41125 23.3366 7.68068 22.5819 7.68068ZM27.8286 32.0833C25.8446 32.0833 24.1538 31.3841 22.7562 29.9855C21.3586 28.5872 20.6598 26.896 20.6598 24.912C20.6598 22.9279 21.359 21.2371 22.7573 19.8395C24.1558 18.442 25.8471 17.7432 27.8312 17.7432C29.8153 17.7432 31.5061 18.4423 32.9036 19.8406C34.3012 21.2392 35 22.9305 35 24.9145C35 26.8986 34.3007 28.5894 32.9022 29.987C31.5039 31.3846 29.8127 32.0833 27.8286 32.0833ZM27.8297 29.6527C29.1585 29.6527 30.2807 29.195 31.1963 28.2796C32.1116 27.364 32.5693 26.2419 32.5693 24.9131C32.5693 23.5845 32.1116 22.4625 31.1963 21.5469C30.2807 20.6313 29.1585 20.1735 27.8297 20.1735C26.5012 20.1735 25.3791 20.6313 24.4635 21.5469C23.548 22.4625 23.0902 23.5845 23.0902 24.9131C23.0902 26.2419 23.548 27.364 24.4635 28.2796C25.3791 29.195 26.5012 29.6527 27.8297 29.6527Z" fill="#5F6368"/>
</g>
<defs>
<clipPath id="clip0_404_212">
<rect width="35" height="35" fill="white"/>
</clipPath>
</defs>
</svg>
