<svg width="36" height="35" viewBox="0 0 36 35" fill="none" xmlns="http://www.w3.org/2000/svg">
<path d="M13.968 30.625C12.3639 30.625 10.9906 30.0538 9.84823 28.9115C8.70586 27.7691 8.13468 26.3958 8.13468 24.7917V12.8698C7.28399 12.5538 6.58521 12.0252 6.03833 11.2839C5.49146 10.5425 5.21802 9.69792 5.21802 8.75C5.21802 7.53472 5.64336 6.50174 6.49406 5.65104C7.34475 4.80035 8.37774 4.375 9.59302 4.375C10.8083 4.375 11.8413 4.80035 12.692 5.65104C13.5427 6.50174 13.968 7.53472 13.968 8.75C13.968 9.69792 13.6946 10.5425 13.1477 11.2839C12.6008 12.0252 11.902 12.5538 11.0514 12.8698V24.7917C11.0514 25.5938 11.3369 26.2804 11.9081 26.8516C12.4793 27.4227 13.1659 27.7083 13.968 27.7083C14.7701 27.7083 15.4567 27.4227 16.0279 26.8516C16.5991 26.2804 16.8847 25.5938 16.8847 24.7917V10.2083C16.8847 8.60417 17.4559 7.2309 18.5982 6.08854C19.7406 4.94618 21.1139 4.375 22.718 4.375C24.3222 4.375 25.6954 4.94618 26.8378 6.08854C27.9802 7.2309 28.5514 8.60417 28.5514 10.2083V22.1302C29.402 22.4462 30.1008 22.9748 30.6477 23.7161C31.1946 24.4575 31.468 25.3021 31.468 26.25C31.468 27.4653 31.0427 28.4983 30.192 29.349C29.3413 30.1997 28.3083 30.625 27.093 30.625C25.8777 30.625 24.8448 30.1997 23.9941 29.349C23.1434 28.4983 22.718 27.4653 22.718 26.25C22.718 25.3021 22.9915 24.4514 23.5383 23.6979C24.0852 22.9444 24.784 22.4219 25.6347 22.1302V10.2083C25.6347 9.40625 25.3491 8.71962 24.7779 8.14844C24.2067 7.57726 23.5201 7.29167 22.718 7.29167C21.9159 7.29167 21.2293 7.57726 20.6581 8.14844C20.0869 8.71962 19.8014 9.40625 19.8014 10.2083V24.7917C19.8014 26.3958 19.2302 27.7691 18.0878 28.9115C16.9454 30.0538 15.5722 30.625 13.968 30.625ZM9.59302 10.2083C10.0062 10.2083 10.3526 10.0686 10.6321 9.78906C10.9116 9.50955 11.0514 9.16319 11.0514 8.75C11.0514 8.33681 10.9116 7.99045 10.6321 7.71094C10.3526 7.43142 10.0062 7.29167 9.59302 7.29167C9.17982 7.29167 8.83347 7.43142 8.55396 7.71094C8.27444 7.99045 8.13468 8.33681 8.13468 8.75C8.13468 9.16319 8.27444 9.50955 8.55396 9.78906C8.83347 10.0686 9.17982 10.2083 9.59302 10.2083ZM27.093 27.7083C27.5062 27.7083 27.8526 27.5686 28.1321 27.2891C28.4116 27.0095 28.5514 26.6632 28.5514 26.25C28.5514 25.8368 28.4116 25.4904 28.1321 25.2109C27.8526 24.9314 27.5062 24.7917 27.093 24.7917C26.6798 24.7917 26.3335 24.9314 26.054 25.2109C25.7744 25.4904 25.6347 25.8368 25.6347 26.25C25.6347 26.6632 25.7744 27.0095 26.054 27.2891C26.3335 27.5686 26.6798 27.7083 27.093 27.7083Z" fill="#5F6368"/>
</svg>
