<svg width="35" height="35" viewBox="0 0 35 35" fill="none" xmlns="http://www.w3.org/2000/svg">
<path d="M17.5 16.625C15.8959 16.625 14.5226 16.0538 13.3802 14.9114C12.2379 13.7691 11.6667 12.3958 11.6667 10.7916C11.6667 9.18748 12.2379 7.81422 13.3802 6.67185C14.5226 5.52949 15.8959 4.95831 17.5 4.95831C19.1042 4.95831 20.4775 5.52949 21.6198 6.67185C22.7622 7.81422 23.3334 9.18748 23.3334 10.7916C23.3334 12.3958 22.7622 13.7691 21.6198 14.9114C20.4775 16.0538 19.1042 16.625 17.5 16.625ZM5.83337 28.2916V24.2083C5.83337 23.3819 6.04605 22.6224 6.47139 21.9297C6.89674 21.237 7.46185 20.7083 8.16671 20.3437C9.67365 19.5903 11.2049 19.0252 12.7605 18.6484C14.316 18.2717 15.8959 18.0833 17.5 18.0833C19.1042 18.0833 20.6841 18.2717 22.2396 18.6484C23.7952 19.0252 25.3264 19.5903 26.8334 20.3437C27.5382 20.7083 28.1033 21.237 28.5287 21.9297C28.954 22.6224 29.1667 23.3819 29.1667 24.2083V28.2916H5.83337ZM8.75004 25.375H26.25V24.2083C26.25 23.941 26.1832 23.6979 26.0495 23.4791C25.9158 23.2604 25.7396 23.0903 25.5209 22.9687C24.2084 22.3125 22.8837 21.8203 21.5469 21.4922C20.2101 21.164 18.8612 21 17.5 21C16.1389 21 14.79 21.164 13.4532 21.4922C12.1164 21.8203 10.7917 22.3125 9.47921 22.9687C9.26046 23.0903 9.08424 23.2604 8.95056 23.4791C8.81688 23.6979 8.75004 23.941 8.75004 24.2083V25.375ZM17.5 13.7083C18.3021 13.7083 18.9888 13.4227 19.5599 12.8515C20.1311 12.2804 20.4167 11.5937 20.4167 10.7916C20.4167 9.98956 20.1311 9.30293 19.5599 8.73175C18.9888 8.16057 18.3021 7.87498 17.5 7.87498C16.698 7.87498 16.0113 8.16057 15.4401 8.73175C14.869 9.30293 14.5834 9.98956 14.5834 10.7916C14.5834 11.5937 14.869 12.2804 15.4401 12.8515C16.0113 13.4227 16.698 13.7083 17.5 13.7083Z" fill="#5F6368"/>
</svg>
