<svg width="16" height="16" viewBox="0 0 16 16" fill="none" xmlns="http://www.w3.org/2000/svg">
<rect width="16" height="16" fill="white"/>
<path d="M7.99992 14.8L7.03325 13.9333C5.91103 12.9222 4.98325 12.05 4.24992 11.3167C3.51659 10.5833 2.93325 9.92501 2.49992 9.34168C2.06659 8.75835 1.76381 8.22224 1.59159 7.73335C1.41936 7.24446 1.33325 6.74446 1.33325 6.23335C1.33325 5.1889 1.68325 4.31668 2.38325 3.61668C3.08325 2.91668 3.95547 2.56668 4.99992 2.56668C5.5777 2.56668 6.1277 2.6889 6.64992 2.93335C7.17214 3.17779 7.62214 3.52224 7.99992 3.96668C8.3777 3.52224 8.8277 3.17779 9.34992 2.93335C9.87214 2.6889 10.4221 2.56668 10.9999 2.56668C12.0444 2.56668 12.9166 2.91668 13.6166 3.61668C14.3166 4.31668 14.6666 5.1889 14.6666 6.23335C14.6666 6.74446 14.5805 7.24446 14.4083 7.73335C14.236 8.22224 13.9333 8.75835 13.4999 9.34168C13.0666 9.92501 12.4833 10.5833 11.7499 11.3167C11.0166 12.05 10.0888 12.9222 8.96658 13.9333L7.99992 14.8ZM7.99992 13C9.06658 12.0445 9.94436 11.225 10.6333 10.5417C11.3221 9.85835 11.8666 9.2639 12.2666 8.75835C12.6666 8.25279 12.9444 7.80279 13.0999 7.40835C13.2555 7.0139 13.3333 6.62224 13.3333 6.23335C13.3333 5.56668 13.111 5.01113 12.6666 4.56668C12.2221 4.12224 11.6666 3.90001 10.9999 3.90001C10.4777 3.90001 9.99436 4.04724 9.54992 4.34168C9.10547 4.63613 8.79992 5.01113 8.63325 5.46668H7.36658C7.19992 5.01113 6.89436 4.63613 6.44992 4.34168C6.00547 4.04724 5.52214 3.90001 4.99992 3.90001C4.33325 3.90001 3.7777 4.12224 3.33325 4.56668C2.88881 5.01113 2.66659 5.56668 2.66659 6.23335C2.66659 6.62224 2.74436 7.0139 2.89992 7.40835C3.05547 7.80279 3.33325 8.25279 3.73325 8.75835C4.13325 9.2639 4.6777 9.85835 5.36659 10.5417C6.05547 11.225 6.93325 12.0445 7.99992 13Z" fill="black"/>
</svg>
