<svg width="91" height="48" viewBox="0 0 91 48" fill="none" xmlns="http://www.w3.org/2000/svg">
<g filter="url(#filter0_d_771_16)">
<rect x="4" width="83" height="40" rx="20" fill="#D95140"/>
<mask id="path-2-outside-1_771_16" maskUnits="userSpaceOnUse" x="14.3" y="14" width="32" height="11" fill="black">
<rect fill="white" x="14.3" y="14" width="32" height="11"/>
<path d="M18.2716 15.2727V24H17.2148V16.3807H17.1637L15.033 17.7955V16.7216L17.2148 15.2727H18.2716ZM23.416 24.0682C23.2057 24.0682 23.0253 23.9929 22.8748 23.8423C22.7242 23.6918 22.6489 23.5114 22.6489 23.3011C22.6489 23.0909 22.7242 22.9105 22.8748 22.7599C23.0253 22.6094 23.2057 22.5341 23.416 22.5341C23.6262 22.5341 23.8066 22.6094 23.9572 22.7599C24.1077 22.9105 24.183 23.0909 24.183 23.3011C24.183 23.4403 24.1475 23.5682 24.0765 23.6847C24.0083 23.8011 23.916 23.8949 23.7995 23.9659C23.6858 24.0341 23.558 24.0682 23.416 24.0682ZM30.9221 24.1193C30.4221 24.1193 29.9719 24.0199 29.5713 23.821C29.1707 23.6222 28.8497 23.3494 28.6082 23.0028C28.3667 22.6562 28.2346 22.2614 28.2119 21.8182H29.2346C29.2744 22.2131 29.4534 22.5398 29.7716 22.7983C30.0926 23.054 30.4761 23.1818 30.9221 23.1818C31.2801 23.1818 31.5983 23.098 31.8767 22.9304C32.1579 22.7628 32.3781 22.5327 32.5372 22.2401C32.6991 21.9446 32.7801 21.6108 32.7801 21.2386C32.7801 20.858 32.6963 20.5185 32.5287 20.2202C32.3639 19.919 32.1366 19.6818 31.8469 19.5085C31.5571 19.3352 31.2261 19.2472 30.854 19.2443C30.5869 19.2415 30.3128 19.2827 30.0315 19.3679C29.7503 19.4503 29.5187 19.5568 29.3369 19.6875L28.3483 19.5682L28.8767 15.2727H33.4108V16.2102H29.763L29.4562 18.7841H29.5074C29.6863 18.642 29.9108 18.5241 30.1807 18.4304C30.4505 18.3366 30.7318 18.2898 31.0244 18.2898C31.5585 18.2898 32.0344 18.4176 32.452 18.6733C32.8724 18.9261 33.202 19.2727 33.4406 19.7131C33.6821 20.1534 33.8028 20.6562 33.8028 21.2216C33.8028 21.7784 33.6778 22.2756 33.4278 22.7131C33.1807 23.1477 32.8398 23.4915 32.4051 23.7443C31.9704 23.9943 31.4761 24.1193 30.9221 24.1193ZM38.0491 24V15.2727H39.1059V19.6023H39.2081L43.1286 15.2727H44.5093L40.8445 19.2102L44.5093 24H43.2309L40.1968 19.9432L39.1059 21.1705V24H38.0491Z"/>
</mask>
<path d="M18.2716 15.2727V24H17.2148V16.3807H17.1637L15.033 17.7955V16.7216L17.2148 15.2727H18.2716ZM23.416 24.0682C23.2057 24.0682 23.0253 23.9929 22.8748 23.8423C22.7242 23.6918 22.6489 23.5114 22.6489 23.3011C22.6489 23.0909 22.7242 22.9105 22.8748 22.7599C23.0253 22.6094 23.2057 22.5341 23.416 22.5341C23.6262 22.5341 23.8066 22.6094 23.9572 22.7599C24.1077 22.9105 24.183 23.0909 24.183 23.3011C24.183 23.4403 24.1475 23.5682 24.0765 23.6847C24.0083 23.8011 23.916 23.8949 23.7995 23.9659C23.6858 24.0341 23.558 24.0682 23.416 24.0682ZM30.9221 24.1193C30.4221 24.1193 29.9719 24.0199 29.5713 23.821C29.1707 23.6222 28.8497 23.3494 28.6082 23.0028C28.3667 22.6562 28.2346 22.2614 28.2119 21.8182H29.2346C29.2744 22.2131 29.4534 22.5398 29.7716 22.7983C30.0926 23.054 30.4761 23.1818 30.9221 23.1818C31.2801 23.1818 31.5983 23.098 31.8767 22.9304C32.1579 22.7628 32.3781 22.5327 32.5372 22.2401C32.6991 21.9446 32.7801 21.6108 32.7801 21.2386C32.7801 20.858 32.6963 20.5185 32.5287 20.2202C32.3639 19.919 32.1366 19.6818 31.8469 19.5085C31.5571 19.3352 31.2261 19.2472 30.854 19.2443C30.5869 19.2415 30.3128 19.2827 30.0315 19.3679C29.7503 19.4503 29.5187 19.5568 29.3369 19.6875L28.3483 19.5682L28.8767 15.2727H33.4108V16.2102H29.763L29.4562 18.7841H29.5074C29.6863 18.642 29.9108 18.5241 30.1807 18.4304C30.4505 18.3366 30.7318 18.2898 31.0244 18.2898C31.5585 18.2898 32.0344 18.4176 32.452 18.6733C32.8724 18.9261 33.202 19.2727 33.4406 19.7131C33.6821 20.1534 33.8028 20.6562 33.8028 21.2216C33.8028 21.7784 33.6778 22.2756 33.4278 22.7131C33.1807 23.1477 32.8398 23.4915 32.4051 23.7443C31.9704 23.9943 31.4761 24.1193 30.9221 24.1193ZM38.0491 24V15.2727H39.1059V19.6023H39.2081L43.1286 15.2727H44.5093L40.8445 19.2102L44.5093 24H43.2309L40.1968 19.9432L39.1059 21.1705V24H38.0491Z" fill="white"/>
<path d="M18.2716 15.2727H18.7716V14.7727H18.2716V15.2727ZM18.2716 24V24.5H18.7716V24H18.2716ZM17.2148 24H16.7148V24.5H17.2148V24ZM17.2148 16.3807H17.7148V15.8807H17.2148V16.3807ZM17.1637 16.3807V15.8807H17.0128L16.8871 15.9641L17.1637 16.3807ZM15.033 17.7955H14.533V18.7276L15.3096 18.212L15.033 17.7955ZM15.033 16.7216L14.7564 16.3051L14.533 16.4534V16.7216H15.033ZM17.2148 15.2727V14.7727H17.0639L16.9382 14.8562L17.2148 15.2727ZM17.7716 15.2727V24H18.7716V15.2727H17.7716ZM18.2716 23.5H17.2148V24.5H18.2716V23.5ZM17.7148 24V16.3807H16.7148V24H17.7148ZM17.2148 15.8807H17.1637V16.8807H17.2148V15.8807ZM16.8871 15.9641L14.7564 17.3789L15.3096 18.212L17.4403 16.7972L16.8871 15.9641ZM15.533 17.7955V16.7216H14.533V17.7955H15.533ZM15.3096 17.1381L17.4914 15.6893L16.9382 14.8562L14.7564 16.3051L15.3096 17.1381ZM17.2148 15.7727H18.2716V14.7727H17.2148V15.7727ZM22.8748 23.8423L23.2283 23.4888L22.8748 23.8423ZM23.9572 22.7599L24.3107 22.4064L24.3107 22.4064L23.9572 22.7599ZM24.0765 23.6847L23.6495 23.4243L23.645 23.4321L24.0765 23.6847ZM23.7995 23.9659L24.0567 24.3947L24.0598 24.3928L23.7995 23.9659ZM23.416 23.5682C23.3402 23.5682 23.2865 23.5469 23.2283 23.4888L22.5212 24.1959C22.7642 24.4389 23.0712 24.5682 23.416 24.5682V23.5682ZM23.2283 23.4888C23.1702 23.4306 23.1489 23.3768 23.1489 23.3011H22.1489C22.1489 23.6459 22.2782 23.9529 22.5212 24.1959L23.2283 23.4888ZM23.1489 23.3011C23.1489 23.2254 23.1702 23.1717 23.2283 23.1135L22.5212 22.4064C22.2782 22.6494 22.1489 22.9564 22.1489 23.3011H23.1489ZM23.2283 23.1135C23.2865 23.0553 23.3402 23.0341 23.416 23.0341V22.0341C23.0712 22.0341 22.7642 22.1634 22.5212 22.4064L23.2283 23.1135ZM23.416 23.0341C23.4917 23.0341 23.5454 23.0553 23.6036 23.1135L24.3107 22.4064C24.0677 22.1634 23.7607 22.0341 23.416 22.0341V23.0341ZM23.6036 23.1135C23.6618 23.1717 23.683 23.2254 23.683 23.3011H24.683C24.683 22.9564 24.5537 22.6494 24.3107 22.4064L23.6036 23.1135ZM23.683 23.3011C23.683 23.3505 23.6718 23.388 23.6496 23.4244L24.5034 23.945C24.6232 23.7484 24.683 23.5302 24.683 23.3011H23.683ZM23.645 23.4321C23.619 23.4764 23.5858 23.5106 23.5392 23.539L24.0598 24.3928C24.2461 24.2792 24.3976 24.1259 24.508 23.9372L23.645 23.4321ZM23.5422 23.5372C23.5119 23.5554 23.4741 23.5682 23.416 23.5682V24.5682C23.6419 24.5682 23.8598 24.5128 24.0567 24.3947L23.5422 23.5372ZM29.5713 23.821L29.3489 24.2689L29.5713 23.821ZM28.6082 23.0028L29.0185 22.717L28.6082 23.0028ZM28.2119 21.8182V21.3182H27.6856L27.7126 21.8438L28.2119 21.8182ZM29.2346 21.8182L29.7321 21.7681L29.6868 21.3182H29.2346V21.8182ZM29.7716 22.7983L29.4563 23.1864L29.4601 23.1894L29.7716 22.7983ZM31.8767 22.9304L31.6207 22.5009L31.6188 22.502L31.8767 22.9304ZM32.5372 22.2401L32.0987 21.9997L32.0979 22.0012L32.5372 22.2401ZM32.5287 20.2202L32.09 20.4602L32.0928 20.4651L32.5287 20.2202ZM30.854 19.2443L30.8486 19.7443L30.8501 19.7443L30.854 19.2443ZM30.0315 19.3679L30.1721 19.8478L30.1765 19.8464L30.0315 19.3679ZM29.3369 19.6875L29.277 20.1839L29.4705 20.2072L29.6287 20.0935L29.3369 19.6875ZM28.3483 19.5682L27.852 19.5071L27.7908 20.0045L28.2884 20.0646L28.3483 19.5682ZM28.8767 15.2727V14.7727H28.4344L28.3804 15.2117L28.8767 15.2727ZM33.4108 15.2727H33.9108V14.7727H33.4108V15.2727ZM33.4108 16.2102V16.7102H33.9108V16.2102H33.4108ZM29.763 16.2102V15.7102H29.3191L29.2666 16.151L29.763 16.2102ZM29.4562 18.7841L28.9597 18.7249L28.8931 19.2841H29.4562V18.7841ZM29.5074 18.7841V19.2841H29.6817L29.8182 19.1757L29.5074 18.7841ZM32.452 18.6733L32.1909 19.0997L32.1943 19.1018L32.452 18.6733ZM33.4406 19.7131L33.001 19.9513L33.0022 19.9535L33.4406 19.7131ZM33.4278 22.7131L32.9937 22.465L32.9932 22.4659L33.4278 22.7131ZM32.4051 23.7443L32.6544 24.1777L32.6565 24.1765L32.4051 23.7443ZM30.9221 23.6193C30.4901 23.6193 30.1173 23.5339 29.7936 23.3732L29.3489 24.2689C29.8264 24.5059 30.3542 24.6193 30.9221 24.6193V23.6193ZM29.7936 23.3732C29.4637 23.2094 29.2091 22.9906 29.0185 22.717L28.198 23.2887C28.4903 23.7083 28.8777 24.0349 29.3489 24.2689L29.7936 23.3732ZM29.0185 22.717C28.8332 22.4511 28.7294 22.1473 28.7113 21.7926L27.7126 21.8438C27.7398 22.3754 27.9003 22.8614 28.198 23.2887L29.0185 22.717ZM28.2119 22.3182H29.2346V21.3182H28.2119V22.3182ZM28.7372 21.8683C28.7907 22.4004 29.0386 22.847 29.4563 23.1864L30.0869 22.4102C29.8682 22.2325 29.7581 22.0258 29.7321 21.7681L28.7372 21.8683ZM29.4601 23.1894C29.8775 23.5219 30.3734 23.6818 30.9221 23.6818V22.6818C30.5788 22.6818 30.3077 22.5861 30.0831 22.4072L29.4601 23.1894ZM30.9221 23.6818C31.3615 23.6818 31.7705 23.5779 32.1346 23.3588L31.6188 22.502C31.426 22.6181 31.1987 22.6818 30.9221 22.6818V23.6818ZM32.1327 23.3599C32.4924 23.1455 32.7753 22.8489 32.9765 22.4789L32.0979 22.0012C31.9809 22.2164 31.8235 22.3801 31.6207 22.5009L32.1327 23.3599ZM32.9757 22.4804C33.1821 22.1038 33.2801 21.6858 33.2801 21.2386H32.2801C32.2801 21.5358 32.2162 21.7854 32.0987 21.9997L32.9757 22.4804ZM33.2801 21.2386C33.2801 20.782 33.1788 20.3565 32.9646 19.9752L32.0928 20.4651C32.2138 20.6805 32.2801 20.9339 32.2801 21.2386H33.2801ZM32.9673 19.9802C32.7605 19.6023 32.471 19.2992 32.1035 19.0794L31.5902 19.9376C31.8022 20.0644 31.9673 20.2358 32.09 20.4602L32.9673 19.9802ZM32.1035 19.0794C31.7296 18.8558 31.3096 18.7478 30.8578 18.7443L30.8501 19.7443C31.1426 19.7465 31.3846 19.8146 31.5902 19.9376L32.1035 19.0794ZM30.8593 18.7443C30.5365 18.7409 30.2116 18.7909 29.8865 18.8894L30.1765 19.8464C30.4139 19.7745 30.6373 19.742 30.8486 19.7443L30.8593 18.7443ZM29.891 18.8881C29.5713 18.9817 29.2845 19.1094 29.0451 19.2815L29.6287 20.0935C29.753 20.0042 29.9292 19.9189 30.1721 19.8477L29.891 18.8881ZM29.3968 19.1911L28.4082 19.0718L28.2884 20.0646L29.277 20.1839L29.3968 19.1911ZM28.8445 19.6292L29.3729 15.3338L28.3804 15.2117L27.852 19.5071L28.8445 19.6292ZM28.8767 15.7727H33.4108V14.7727H28.8767V15.7727ZM32.9108 15.2727V16.2102H33.9108V15.2727H32.9108ZM33.4108 15.7102H29.763V16.7102H33.4108V15.7102ZM29.2666 16.151L28.9597 18.7249L29.9527 18.8433L30.2595 16.2694L29.2666 16.151ZM29.4562 19.2841H29.5074V18.2841H29.4562V19.2841ZM29.8182 19.1757C29.9437 19.0761 30.1152 18.9824 30.3447 18.9027L30.0166 17.9581C29.7063 18.0659 29.429 18.2079 29.1965 18.3924L29.8182 19.1757ZM30.3447 18.9027C30.5606 18.8277 30.7863 18.7898 31.0244 18.7898V17.7898C30.6773 17.7898 30.3405 17.8456 30.0166 17.9581L30.3447 18.9027ZM31.0244 18.7898C31.475 18.7898 31.8589 18.8965 32.1909 19.0997L32.713 18.2469C32.2098 17.9387 31.642 17.7898 31.0244 17.7898V18.7898ZM32.1943 19.1018C32.5365 19.3076 32.804 19.5878 33.001 19.9513L33.8802 19.4748C33.5999 18.9577 33.2083 18.5447 32.7096 18.2448L32.1943 19.1018ZM33.0022 19.9535C33.1984 20.3113 33.3028 20.7296 33.3028 21.2216H34.3028C34.3028 20.5829 34.1658 19.9956 33.879 19.4727L33.0022 19.9535ZM33.3028 21.2216C33.3028 21.7008 33.1961 22.1108 32.9937 22.465L33.8619 22.9611C34.1595 22.4404 34.3028 21.8561 34.3028 21.2216H33.3028ZM32.9932 22.4659C32.7899 22.8233 32.5124 23.1034 32.1537 23.3121L32.6565 24.1765C33.1671 23.8795 33.5714 23.4721 33.8625 22.9602L32.9932 22.4659ZM32.1558 23.3109C31.8047 23.5128 31.398 23.6193 30.9221 23.6193V24.6193C31.5542 24.6193 32.1361 24.4758 32.6544 24.1777L32.1558 23.3109ZM38.0491 24H37.5491V24.5H38.0491V24ZM38.0491 15.2727V14.7727H37.5491V15.2727H38.0491ZM39.1059 15.2727H39.6059V14.7727H39.1059V15.2727ZM39.1059 19.6023H38.6059V20.1023H39.1059V19.6023ZM39.2081 19.6023V20.1023H39.4299L39.5788 19.9379L39.2081 19.6023ZM43.1286 15.2727V14.7727H42.9068L42.758 14.9371L43.1286 15.2727ZM44.5093 15.2727L44.8753 15.6134L45.6577 14.7727H44.5093V15.2727ZM40.8445 19.2102L40.4785 18.8696L40.1908 19.1787L40.4474 19.5141L40.8445 19.2102ZM44.5093 24V24.5H45.5214L44.9064 23.6962L44.5093 24ZM43.2309 24L42.8305 24.2995L42.9805 24.5H43.2309V24ZM40.1968 19.9432L40.5972 19.6437L40.2302 19.153L39.8231 19.611L40.1968 19.9432ZM39.1059 21.1705L38.7322 20.8383L38.6059 20.9804V21.1705H39.1059ZM39.1059 24V24.5H39.6059V24H39.1059ZM38.5491 24V15.2727H37.5491V24H38.5491ZM38.0491 15.7727H39.1059V14.7727H38.0491V15.7727ZM38.6059 15.2727V19.6023H39.6059V15.2727H38.6059ZM39.1059 20.1023H39.2081V19.1023H39.1059V20.1023ZM39.5788 19.9379L43.4992 15.6083L42.758 14.9371L38.8375 19.2667L39.5788 19.9379ZM43.1286 15.7727H44.5093V14.7727H43.1286V15.7727ZM44.1433 14.9321L40.4785 18.8696L41.2105 19.5509L44.8753 15.6134L44.1433 14.9321ZM40.4474 19.5141L44.1122 24.3038L44.9064 23.6962L41.2416 18.9064L40.4474 19.5141ZM44.5093 23.5H43.2309V24.5H44.5093V23.5ZM43.6313 23.7005L40.5972 19.6437L39.7964 20.2426L42.8305 24.2995L43.6313 23.7005ZM39.8231 19.611L38.7322 20.8383L39.4796 21.5026L40.5705 20.2754L39.8231 19.611ZM38.6059 21.1705V24H39.6059V21.1705H38.6059ZM39.1059 23.5H38.0491V24.5H39.1059V23.5Z" fill="white" mask="url(#path-2-outside-1_771_16)"/>
</g>
<circle cx="69" cy="20" r="20" fill="white"/>
<circle cx="69" cy="20" r="19.75" stroke="black" stroke-opacity="0.4" stroke-width="0.5"/>
<path d="M69 28.2346L67.9305 27.2721C66.3389 25.8195 65.0231 24.5665 63.9831 23.5129C62.943 22.4593 62.1149 21.5162 61.4987 20.6836C60.8824 19.851 60.4508 19.0935 60.2039 18.4112C59.9569 17.7287 59.8334 17.0361 59.8334 16.3333C59.8334 14.9363 60.3019 13.7697 61.2389 12.8335C62.176 11.8973 63.3371 11.4292 64.7222 11.4292C65.5677 11.4292 66.3571 11.6227 67.0904 12.0096C67.8237 12.3968 68.4603 12.9519 69 13.675C69.6009 12.9213 70.2604 12.3586 70.9784 11.9867C71.6965 11.615 72.463 11.4292 73.2779 11.4292C74.663 11.4292 75.8241 11.8973 76.7612 12.8335C77.6982 13.7697 78.1667 14.9363 78.1667 16.3333C78.1667 17.0361 78.0432 17.7287 77.7961 18.4112C77.5493 19.0935 77.1177 19.851 76.5014 20.6836C75.8852 21.5162 75.0571 22.4593 74.017 23.5129C72.977 24.5665 71.6612 25.8195 70.0696 27.2721L69 28.2346ZM69 26.2029C70.52 24.8176 71.7709 23.6298 72.7526 22.6393C73.7342 21.6487 74.5128 20.7829 75.0883 20.0419C75.6637 19.301 76.0659 18.6408 76.2951 18.0615C76.5243 17.4821 76.6389 16.9069 76.6389 16.3356C76.6389 15.3563 76.3231 14.5484 75.6917 13.9117C75.0603 13.2753 74.2568 12.957 73.2813 12.957C72.5171 12.957 71.8099 13.1849 71.1595 13.6406C70.5093 14.0964 70.0085 14.7189 69.6571 15.5083H68.3279C67.9866 14.7292 67.4908 14.1091 66.8406 13.6482C66.1902 13.1874 65.4829 12.957 64.7187 12.957C63.7433 12.957 62.9398 13.2753 62.3084 13.9117C61.6769 14.5484 61.3612 15.3572 61.3612 16.3381C61.3612 16.9105 61.4758 17.4881 61.705 18.0711C61.9341 18.6543 62.3364 19.3188 62.9118 20.0649C63.4873 20.811 64.269 21.6768 65.2571 22.6622C66.2449 23.6476 67.4926 24.8279 69 26.2029Z" fill="#D95140"/>
<defs>
<filter id="filter0_d_771_16" x="0" y="0" width="91" height="48" filterUnits="userSpaceOnUse" color-interpolation-filters="sRGB">
<feFlood flood-opacity="0" result="BackgroundImageFix"/>
<feColorMatrix in="SourceAlpha" type="matrix" values="0 0 0 0 0 0 0 0 0 0 0 0 0 0 0 0 0 0 127 0" result="hardAlpha"/>
<feOffset dy="4"/>
<feGaussianBlur stdDeviation="2"/>
<feComposite in2="hardAlpha" operator="out"/>
<feColorMatrix type="matrix" values="0 0 0 0 0 0 0 0 0 0 0 0 0 0 0 0 0 0 0.25 0"/>
<feBlend mode="normal" in2="BackgroundImageFix" result="effect1_dropShadow_771_16"/>
<feBlend mode="normal" in="SourceGraphic" in2="effect1_dropShadow_771_16" result="shape"/>
</filter>
</defs>
</svg>
