<svg width="29" height="29" viewBox="0 0 29 29" fill="none" xmlns="http://www.w3.org/2000/svg">
<path d="M4.43065 24.1667C3.8869 24.1667 3.41525 23.967 3.0157 23.5676C2.61634 23.1681 2.41666 22.6964 2.41666 22.1527V6.84733C2.41666 6.30358 2.61634 5.83192 3.0157 5.43237C3.41525 5.03301 3.8869 4.83334 4.43065 4.83334H24.5693C25.1131 4.83334 25.5847 5.03301 25.9843 5.43237C26.3837 5.83192 26.5833 6.30358 26.5833 6.84733V22.1527C26.5833 22.6964 26.3837 23.1681 25.9843 23.5676C25.5847 23.967 25.1131 24.1667 24.5693 24.1667H4.43065ZM14.5 15.2652L4.43065 8.76042V22.1527H24.5693V8.76042L14.5 15.2652ZM14.5 13.2515L24.489 6.84733H4.53125L14.5 13.2515ZM4.43065 8.76042V6.84733V22.1527V8.76042Z" fill="#CDCDCD"/>
</svg>
