<svg width="300" height="45" viewBox="0 0 300 45" fill="none" xmlns="http://www.w3.org/2000/svg">
<rect width="300" height="45" rx="6" fill="white"/>
<rect x="0.5" y="0.5" width="299" height="44" rx="5.5" stroke="black" stroke-opacity="0.5"/>
<path d="M22.4306 32.1667C21.8869 32.1667 21.4152 31.967 21.0157 31.5676C20.6163 31.1681 20.4167 30.6964 20.4167 30.1527V14.8473C20.4167 14.3036 20.6163 13.8319 21.0157 13.4324C21.4152 13.033 21.8869 12.8333 22.4306 12.8333H42.5693C43.1131 12.8333 43.5847 13.033 43.9843 13.4324C44.3836 13.8319 44.5833 14.3036 44.5833 14.8473V30.1527C44.5833 30.6964 44.3836 31.1681 43.9843 31.5676C43.5847 31.967 43.1131 32.1667 42.5693 32.1667H22.4306ZM32.5 23.2652L22.4306 16.7604V30.1527H42.5693V16.7604L32.5 23.2652ZM32.5 21.2515L42.489 14.8473H22.5312L32.5 21.2515ZM22.4306 16.7604V14.8473V30.1527V16.7604Z" fill="#5F6368"/>
<path d="M86.2812 26.4453V28H80.5703V26.4453H86.2812ZM81.1172 16.625V28H79.1562V16.625H81.1172ZM90.45 23.8672V23.6875C90.45 23.0781 90.5385 22.513 90.7156 21.9922C90.8927 21.4661 91.1479 21.0104 91.4812 20.625C91.8198 20.2344 92.2312 19.9323 92.7156 19.7188C93.2052 19.5 93.7573 19.3906 94.3719 19.3906C94.9917 19.3906 95.5437 19.5 96.0281 19.7188C96.5177 19.9323 96.9318 20.2344 97.2703 20.625C97.6089 21.0104 97.8667 21.4661 98.0437 21.9922C98.2208 22.513 98.3094 23.0781 98.3094 23.6875V23.8672C98.3094 24.4766 98.2208 25.0417 98.0437 25.5625C97.8667 26.0833 97.6089 26.5391 97.2703 26.9297C96.9318 27.3151 96.5203 27.6172 96.0359 27.8359C95.5516 28.0495 95.0021 28.1562 94.3875 28.1562C93.7677 28.1562 93.213 28.0495 92.7234 27.8359C92.2391 27.6172 91.8276 27.3151 91.4891 26.9297C91.1505 26.5391 90.8927 26.0833 90.7156 25.5625C90.5385 25.0417 90.45 24.4766 90.45 23.8672ZM92.3328 23.6875V23.8672C92.3328 24.2474 92.3719 24.6068 92.45 24.9453C92.5281 25.2839 92.6505 25.5807 92.8172 25.8359C92.9839 26.0911 93.1974 26.2917 93.4578 26.4375C93.7182 26.5833 94.0281 26.6562 94.3875 26.6562C94.7365 26.6562 95.0385 26.5833 95.2937 26.4375C95.5542 26.2917 95.7677 26.0911 95.9344 25.8359C96.101 25.5807 96.2234 25.2839 96.3016 24.9453C96.3849 24.6068 96.4266 24.2474 96.4266 23.8672V23.6875C96.4266 23.3125 96.3849 22.9583 96.3016 22.625C96.2234 22.2865 96.0984 21.987 95.9266 21.7266C95.7599 21.4661 95.5464 21.263 95.2859 21.1172C95.0307 20.9661 94.726 20.8906 94.3719 20.8906C94.0177 20.8906 93.7104 20.9661 93.45 21.1172C93.1948 21.263 92.9839 21.4661 92.8172 21.7266C92.6505 21.987 92.5281 22.2865 92.45 22.625C92.3719 22.9583 92.3328 23.3125 92.3328 23.6875ZM108.502 19.5469H110.212V27.7656C110.212 28.526 110.051 29.1719 109.728 29.7031C109.405 30.2344 108.955 30.638 108.377 30.9141C107.798 31.1953 107.129 31.3359 106.369 31.3359C106.046 31.3359 105.686 31.2891 105.291 31.1953C104.9 31.1016 104.52 30.9505 104.15 30.7422C103.785 30.5391 103.481 30.2708 103.236 29.9375L104.119 28.8281C104.421 29.1875 104.754 29.4505 105.119 29.6172C105.483 29.7839 105.866 29.8672 106.267 29.8672C106.699 29.8672 107.067 29.7865 107.369 29.625C107.676 29.4688 107.913 29.237 108.08 28.9297C108.246 28.6224 108.33 28.2474 108.33 27.8047V21.4609L108.502 19.5469ZM102.759 23.8672V23.7031C102.759 23.0625 102.837 22.4792 102.994 21.9531C103.15 21.4219 103.374 20.9661 103.666 20.5859C103.957 20.2005 104.311 19.9062 104.728 19.7031C105.145 19.4948 105.616 19.3906 106.142 19.3906C106.689 19.3906 107.155 19.4896 107.541 19.6875C107.931 19.8854 108.257 20.1693 108.517 20.5391C108.778 20.9036 108.981 21.3411 109.127 21.8516C109.278 22.3568 109.39 22.9193 109.462 23.5391V24.0625C109.395 24.6667 109.28 25.2188 109.119 25.7188C108.957 26.2188 108.744 26.651 108.478 27.0156C108.212 27.3802 107.884 27.6615 107.494 27.8594C107.108 28.0573 106.653 28.1562 106.127 28.1562C105.611 28.1562 105.145 28.0495 104.728 27.8359C104.317 27.6224 103.962 27.3229 103.666 26.9375C103.374 26.5521 103.15 26.099 102.994 25.5781C102.837 25.0521 102.759 24.4818 102.759 23.8672ZM104.642 23.7031V23.8672C104.642 24.2526 104.679 24.612 104.752 24.9453C104.83 25.2786 104.947 25.5729 105.103 25.8281C105.265 26.0781 105.468 26.276 105.712 26.4219C105.962 26.5625 106.257 26.6328 106.595 26.6328C107.038 26.6328 107.4 26.5391 107.681 26.3516C107.968 26.1641 108.186 25.9115 108.337 25.5938C108.494 25.2708 108.603 24.9115 108.666 24.5156V23.1016C108.634 22.7943 108.569 22.5078 108.47 22.2422C108.377 21.9766 108.249 21.7448 108.087 21.5469C107.926 21.3438 107.723 21.1875 107.478 21.0781C107.233 20.9635 106.944 20.9062 106.611 20.9062C106.272 20.9062 105.978 20.9792 105.728 21.125C105.478 21.2708 105.272 21.4714 105.111 21.7266C104.955 21.9818 104.837 22.2786 104.759 22.6172C104.681 22.9557 104.642 23.3177 104.642 23.7031ZM124.566 19.5469V28H122.675V19.5469H124.566ZM122.55 17.3281C122.55 17.0417 122.644 16.8047 122.831 16.6172C123.024 16.4245 123.29 16.3281 123.628 16.3281C123.961 16.3281 124.224 16.4245 124.417 16.6172C124.61 16.8047 124.706 17.0417 124.706 17.3281C124.706 17.6094 124.61 17.8438 124.417 18.0312C124.224 18.2188 123.961 18.3125 123.628 18.3125C123.29 18.3125 123.024 18.2188 122.831 18.0312C122.644 17.8438 122.55 17.6094 122.55 17.3281ZM131.695 21.3516V28H129.812V19.5469H131.586L131.695 21.3516ZM131.359 23.4609L130.75 23.4531C130.755 22.8542 130.839 22.3047 131 21.8047C131.167 21.3047 131.396 20.875 131.688 20.5156C131.984 20.1562 132.339 19.8802 132.75 19.6875C133.161 19.4896 133.62 19.3906 134.125 19.3906C134.531 19.3906 134.898 19.4479 135.227 19.5625C135.56 19.6719 135.844 19.8516 136.078 20.1016C136.318 20.3516 136.5 20.6771 136.625 21.0781C136.75 21.474 136.812 21.9609 136.812 22.5391V28H134.922V22.5312C134.922 22.125 134.862 21.8047 134.742 21.5703C134.628 21.3307 134.458 21.1615 134.234 21.0625C134.016 20.9583 133.742 20.9062 133.414 20.9062C133.091 20.9062 132.802 20.974 132.547 21.1094C132.292 21.2448 132.076 21.4297 131.898 21.6641C131.727 21.8984 131.594 22.1693 131.5 22.4766C131.406 22.7839 131.359 23.112 131.359 23.4609ZM151.416 26.125L153.369 19.5469H154.572L154.244 21.5156L152.275 28H151.197L151.416 26.125ZM150.267 19.5469L151.791 26.1562L151.916 28H150.713L148.423 19.5469H150.267ZM156.4 26.0781L157.877 19.5469H159.713L157.431 28H156.228L156.4 26.0781ZM154.775 19.5469L156.705 26.0469L156.947 28H155.869L153.877 21.5078L153.548 19.5469H154.775ZM166.209 19.5469V28H164.319V19.5469H166.209ZM164.194 17.3281C164.194 17.0417 164.287 16.8047 164.475 16.6172C164.668 16.4245 164.933 16.3281 165.272 16.3281C165.605 16.3281 165.868 16.4245 166.061 16.6172C166.254 16.8047 166.35 17.0417 166.35 17.3281C166.35 17.6094 166.254 17.8438 166.061 18.0312C165.868 18.2188 165.605 18.3125 165.272 18.3125C164.933 18.3125 164.668 18.2188 164.475 18.0312C164.287 17.8438 164.194 17.6094 164.194 17.3281ZM175.347 19.5469V20.9219H170.581V19.5469H175.347ZM171.956 17.4766H173.839V25.6641C173.839 25.9245 173.876 26.125 173.948 26.2656C174.027 26.401 174.133 26.4922 174.269 26.5391C174.404 26.5859 174.563 26.6094 174.745 26.6094C174.876 26.6094 175.001 26.6016 175.12 26.5859C175.24 26.5703 175.336 26.5547 175.409 26.5391L175.417 27.9766C175.261 28.0234 175.079 28.0651 174.87 28.1016C174.667 28.138 174.433 28.1562 174.167 28.1562C173.735 28.1562 173.352 28.0807 173.019 27.9297C172.685 27.7734 172.425 27.5208 172.238 27.1719C172.05 26.8229 171.956 26.3594 171.956 25.7812V17.4766ZM181.859 16V28H179.984V16H181.859ZM181.531 23.4609L180.922 23.4531C180.927 22.8698 181.008 22.3307 181.164 21.8359C181.326 21.3411 181.549 20.9115 181.836 20.5469C182.128 20.1771 182.477 19.8932 182.883 19.6953C183.289 19.4922 183.74 19.3906 184.234 19.3906C184.651 19.3906 185.026 19.4479 185.359 19.5625C185.698 19.6771 185.99 19.862 186.234 20.1172C186.479 20.3672 186.664 20.6953 186.789 21.1016C186.919 21.5026 186.984 21.9922 186.984 22.5703V28H185.094V22.5547C185.094 22.1484 185.034 21.8255 184.914 21.5859C184.799 21.3464 184.63 21.1745 184.406 21.0703C184.182 20.9609 183.909 20.9062 183.586 20.9062C183.247 20.9062 182.948 20.974 182.688 21.1094C182.432 21.2448 182.219 21.4297 182.047 21.6641C181.875 21.8984 181.745 22.1693 181.656 22.4766C181.573 22.7839 181.531 23.112 181.531 23.4609ZM206.908 26.4453V28H200.869V26.4453H206.908ZM201.423 16.625V28H199.463V16.625H201.423ZM206.119 21.375V22.9062H200.869V21.375H206.119ZM206.869 16.625V18.1875H200.869V16.625H206.869ZM215.311 22.3906V23.8906H211.178V22.3906H215.311ZM222.042 21.2656V28H220.159V19.5469H221.933L222.042 21.2656ZM221.738 23.4609L221.097 23.4531C221.097 22.8698 221.17 22.3307 221.316 21.8359C221.461 21.3411 221.675 20.9115 221.956 20.5469C222.238 20.1771 222.586 19.8932 223.003 19.6953C223.425 19.4922 223.912 19.3906 224.464 19.3906C224.849 19.3906 225.201 19.4479 225.519 19.5625C225.842 19.6719 226.12 19.8464 226.355 20.0859C226.594 20.3255 226.777 20.6328 226.902 21.0078C227.032 21.3828 227.097 21.8359 227.097 22.3672V28H225.214V22.5312C225.214 22.1198 225.152 21.7969 225.027 21.5625C224.907 21.3281 224.732 21.1615 224.503 21.0625C224.279 20.9583 224.011 20.9062 223.698 20.9062C223.344 20.9062 223.042 20.974 222.792 21.1094C222.547 21.2448 222.347 21.4297 222.191 21.6641C222.034 21.8984 221.92 22.1693 221.847 22.4766C221.774 22.7839 221.738 23.112 221.738 23.4609ZM226.98 22.9609L226.097 23.1562C226.097 22.6458 226.167 22.1641 226.308 21.7109C226.454 21.2526 226.665 20.8516 226.941 20.5078C227.222 20.1589 227.568 19.8854 227.98 19.6875C228.391 19.4896 228.863 19.3906 229.394 19.3906C229.826 19.3906 230.211 19.4505 230.55 19.5703C230.894 19.6849 231.185 19.8672 231.425 20.1172C231.665 20.3672 231.847 20.6927 231.972 21.0938C232.097 21.4896 232.159 21.9688 232.159 22.5312V28H230.269V22.5234C230.269 22.0964 230.206 21.7656 230.081 21.5312C229.961 21.2969 229.79 21.1354 229.566 21.0469C229.342 20.9531 229.073 20.9062 228.761 20.9062C228.469 20.9062 228.211 20.9609 227.988 21.0703C227.769 21.1745 227.584 21.3229 227.433 21.5156C227.282 21.7031 227.167 21.9193 227.089 22.1641C227.016 22.4089 226.98 22.6745 226.98 22.9609ZM242.062 26.3047V22.2734C242.062 21.9714 242.008 21.7109 241.898 21.4922C241.789 21.2734 241.622 21.1042 241.398 20.9844C241.18 20.8646 240.904 20.8047 240.57 20.8047C240.263 20.8047 239.997 20.8568 239.773 20.9609C239.549 21.0651 239.375 21.2057 239.25 21.3828C239.125 21.5599 239.062 21.7604 239.062 21.9844H237.188C237.188 21.651 237.268 21.3281 237.43 21.0156C237.591 20.7031 237.826 20.4245 238.133 20.1797C238.44 19.9349 238.807 19.7422 239.234 19.6016C239.661 19.4609 240.141 19.3906 240.672 19.3906C241.307 19.3906 241.87 19.4974 242.359 19.7109C242.854 19.9245 243.242 20.2474 243.523 20.6797C243.81 21.1068 243.953 21.6432 243.953 22.2891V26.0469C243.953 26.4323 243.979 26.7786 244.031 27.0859C244.089 27.388 244.169 27.651 244.273 27.875V28H242.344C242.255 27.7969 242.185 27.5391 242.133 27.2266C242.086 26.9089 242.062 26.6016 242.062 26.3047ZM242.336 22.8594L242.352 24.0234H241C240.651 24.0234 240.344 24.0573 240.078 24.125C239.812 24.1875 239.591 24.2812 239.414 24.4062C239.237 24.5312 239.104 24.6823 239.016 24.8594C238.927 25.0365 238.883 25.237 238.883 25.4609C238.883 25.6849 238.935 25.8906 239.039 26.0781C239.143 26.2604 239.294 26.4036 239.492 26.5078C239.695 26.612 239.94 26.6641 240.227 26.6641C240.612 26.6641 240.948 26.5859 241.234 26.4297C241.526 26.2682 241.755 26.0729 241.922 25.8438C242.089 25.6094 242.177 25.388 242.188 25.1797L242.797 26.0156C242.734 26.2292 242.628 26.4583 242.477 26.7031C242.326 26.9479 242.128 27.1823 241.883 27.4062C241.643 27.625 241.354 27.8047 241.016 27.9453C240.682 28.0859 240.297 28.1562 239.859 28.1562C239.307 28.1562 238.815 28.0469 238.383 27.8281C237.951 27.6042 237.612 27.3047 237.367 26.9297C237.122 26.5495 237 26.1198 237 25.6406C237 25.1927 237.083 24.7969 237.25 24.4531C237.422 24.1042 237.672 23.8125 238 23.5781C238.333 23.3438 238.74 23.1667 239.219 23.0469C239.698 22.9219 240.245 22.8594 240.859 22.8594H242.336ZM251.137 19.5469V28H249.247V19.5469H251.137ZM249.122 17.3281C249.122 17.0417 249.216 16.8047 249.403 16.6172C249.596 16.4245 249.861 16.3281 250.2 16.3281C250.533 16.3281 250.796 16.4245 250.989 16.6172C251.182 16.8047 251.278 17.0417 251.278 17.3281C251.278 17.6094 251.182 17.8438 250.989 18.0312C250.796 18.2188 250.533 18.3125 250.2 18.3125C249.861 18.3125 249.596 18.2188 249.403 18.0312C249.216 17.8438 249.122 17.6094 249.122 17.3281ZM258.416 16V28H256.525V16H258.416Z" fill="#1F1F1F"/>
</svg>
