<svg width="302" height="47" viewBox="0 0 302 47" fill="none" xmlns="http://www.w3.org/2000/svg">
<mask id="mask0_355_421" style="mask-type:luminance" maskUnits="userSpaceOnUse" x="19" y="9" width="28" height="29">
<path d="M47 9.07692H19V37.0769H47V9.07692Z" fill="white"/>
</mask>
<g mask="url(#mask0_355_421)">
<path d="M46.44 23.3951C46.44 22.4024 46.351 21.4479 46.1855 20.5314H33V25.9469H40.5345C40.21 27.6969 39.2237 29.1797 37.741 30.1724V33.6851H42.2655C44.9127 31.2479 46.44 27.6587 46.44 23.3951Z" fill="#4285F4"/>
<path d="M33 37.0769C36.78 37.0769 39.949 35.8232 42.2653 33.6852L37.7408 30.1724C36.4873 31.0124 34.8836 31.5087 33 31.5087C29.3536 31.5087 26.2673 29.046 25.1663 25.7369H20.489V29.3642C22.7927 33.9397 27.5273 37.0769 33 37.0769Z" fill="#34A853"/>
<path d="M25.1663 25.7369C24.8863 24.8969 24.7273 23.9997 24.7273 23.0769C24.7273 22.1542 24.8863 21.2569 25.1663 20.4169V16.7897H20.489C19.541 18.6797 19 20.8179 19 23.0769C19 25.336 19.541 27.4742 20.489 29.3642L25.1663 25.7369Z" fill="#FBBC04"/>
<path d="M33 14.6451C35.0553 14.6451 36.9008 15.3514 38.3518 16.7387L42.3673 12.7232C39.9427 10.4642 36.7736 9.07692 33 9.07692C27.5273 9.07692 22.7927 12.2142 20.489 16.7897L25.1663 20.4169C26.2673 17.1079 29.3536 14.6451 33 14.6451Z" fill="#E94235"/>
</g>
<path d="M84.0747 26.3113C84.0747 26.0747 84.0266 25.8645 83.9305 25.6803C83.8413 25.4963 83.68 25.328 83.4467 25.1755C83.2132 25.0231 82.8838 24.8758 82.4581 24.7338C82.0394 24.5866 81.5039 24.4367 80.8518 24.2843C80.1378 24.116 79.4788 23.9293 78.8748 23.7242C78.2776 23.5138 77.756 23.272 77.3096 22.9985C76.8635 22.7199 76.5169 22.4018 76.2697 22.0442C76.0225 21.6813 75.899 21.2633 75.899 20.7901C75.899 20.3221 76.026 19.8961 76.2799 19.5122C76.5408 19.1284 76.9081 18.7971 77.3818 18.5184C77.8623 18.2344 78.4287 18.0162 79.0807 17.8637C79.7329 17.706 80.4537 17.6271 81.2431 17.6271C82.3551 17.6271 83.3128 17.7849 84.1159 18.1003C84.926 18.4159 85.5472 18.8391 85.9797 19.3703C86.419 19.9014 86.6387 20.4876 86.6387 21.1292H84.0747C84.0747 20.7506 83.9683 20.4167 83.7555 20.1274C83.5496 19.833 83.2339 19.6016 82.8082 19.4334C82.3894 19.2651 81.8574 19.1809 81.2123 19.1809C80.6013 19.1809 80.0933 19.252 79.6882 19.3939C79.2833 19.536 78.9812 19.7278 78.7822 19.9697C78.5831 20.2116 78.4835 20.485 78.4835 20.7901C78.4835 21.0056 78.5487 21.2028 78.6792 21.3816C78.8096 21.5552 79.0087 21.7181 79.2764 21.8706C79.5441 22.0179 79.8804 22.1573 80.2855 22.2887C80.6905 22.4201 81.1675 22.5463 81.7167 22.6673C82.5473 22.8566 83.2715 23.067 83.8894 23.2983C84.5073 23.5245 85.0221 23.7821 85.4339 24.0713C85.8458 24.3605 86.1547 24.6891 86.3606 25.0572C86.5665 25.4201 86.6695 25.8328 86.6695 26.2956C86.6695 26.7793 86.5426 27.2158 86.2886 27.6049C86.0346 27.9888 85.6707 28.3174 85.1971 28.5909C84.7303 28.859 84.1675 29.0667 83.5085 29.214C82.8562 29.356 82.1287 29.427 81.3255 29.427C80.6046 29.427 79.8943 29.3533 79.194 29.2061C78.5007 29.0589 77.8692 28.8354 77.2994 28.5357C76.7296 28.2306 76.2766 27.8521 75.9403 27.3999C75.6038 26.9424 75.4357 26.4086 75.4357 25.7987H78.0202C78.0202 26.1721 78.1025 26.4902 78.2673 26.753C78.4389 27.016 78.6757 27.2315 78.9778 27.3999C79.2799 27.5629 79.6299 27.6838 80.028 27.7626C80.4331 27.8416 80.8655 27.881 81.3255 27.881C81.9296 27.881 82.4342 27.8153 82.8391 27.6838C83.251 27.5523 83.5598 27.3683 83.7659 27.1317C83.9718 26.8951 84.0747 26.6216 84.0747 26.3113ZM91.3649 20.7348V29.2692H88.8731V20.7348H91.3649ZM88.7083 18.4947C88.7083 18.2056 88.8318 17.9663 89.079 17.7769C89.333 17.5824 89.6832 17.4851 90.1293 17.4851C90.5686 17.4851 90.9153 17.5824 91.1693 17.7769C91.4232 17.9663 91.5502 18.2056 91.5502 18.4947C91.5502 18.7787 91.4232 19.0153 91.1693 19.2046C90.9153 19.3939 90.5686 19.4885 90.1293 19.4885C89.6832 19.4885 89.333 19.3939 89.079 19.2046C88.8318 19.0153 88.7083 18.7787 88.7083 18.4947ZM101.219 20.7348H103.474V29.0326C103.474 29.8003 103.261 30.4524 102.836 30.9887C102.41 31.5251 101.816 31.9326 101.054 32.2113C100.292 32.4953 99.4102 32.6372 98.408 32.6372C97.9823 32.6372 97.5088 32.5899 96.987 32.4953C96.4721 32.4006 95.971 32.2481 95.4837 32.0378C95.0032 31.8327 94.6016 31.5619 94.279 31.2253L95.4424 30.1053C95.8406 30.4682 96.2799 30.7337 96.7604 30.9019C97.241 31.0703 97.7456 31.1544 98.2741 31.1544C98.8439 31.1544 99.3278 31.0729 99.726 30.9099C100.131 30.7521 100.443 30.5181 100.663 30.2079C100.883 29.8976 100.993 29.519 100.993 29.072V22.6673L101.219 20.7348ZM93.6509 25.0967V24.931C93.6509 24.2843 93.7538 23.6953 93.9597 23.1642C94.1657 22.6278 94.4608 22.1678 94.8452 21.7839C95.2296 21.3948 95.6964 21.0977 96.2456 20.8925C96.7948 20.6822 97.416 20.5771 98.1093 20.5771C98.8301 20.5771 99.4445 20.677 99.9526 20.8768C100.467 21.0766 100.896 21.3632 101.24 21.7366C101.583 22.1046 101.851 22.5463 102.043 23.0616C102.242 23.5718 102.389 24.1397 102.486 24.7654V25.2939C102.396 25.9038 102.245 26.4612 102.032 26.966C101.82 27.4708 101.538 27.9073 101.188 28.2754C100.838 28.6435 100.406 28.9275 99.8907 29.1273C99.3827 29.327 98.782 29.427 98.0888 29.427C97.4092 29.427 96.7948 29.3192 96.2456 29.1035C95.7033 28.888 95.2365 28.5857 94.8452 28.1965C94.4608 27.8074 94.1657 27.3499 93.9597 26.8241C93.7538 26.293 93.6509 25.7171 93.6509 25.0967ZM96.1323 24.931V25.0967C96.1323 25.4858 96.1804 25.8486 96.2765 26.1851C96.3795 26.5217 96.5339 26.8188 96.7398 27.0765C96.9527 27.3289 97.2205 27.5286 97.5431 27.6759C97.8725 27.8179 98.2604 27.8889 98.7066 27.8889C99.2901 27.8889 99.7671 27.7943 100.138 27.6049C100.515 27.4157 100.804 27.1606 101.003 26.8398C101.209 26.5138 101.353 26.151 101.435 25.7514V24.3237C101.394 24.0135 101.308 23.7242 101.178 23.456C101.054 23.1879 100.886 22.9539 100.673 22.754C100.46 22.549 100.193 22.3913 99.8702 22.2808C99.5475 22.1651 99.1666 22.1073 98.7272 22.1073C98.281 22.1073 97.8932 22.1809 97.5636 22.3281C97.2342 22.4754 96.963 22.6778 96.7502 22.9354C96.5443 23.1931 96.3897 23.4928 96.2869 23.8346C96.1838 24.1765 96.1323 24.5419 96.1323 24.931ZM108.509 22.5568V29.2692H106.028V20.7348H108.365L108.509 22.5568ZM108.066 24.6865L107.263 24.6786C107.27 24.0739 107.38 23.5191 107.593 23.0143C107.813 22.5095 108.115 22.0757 108.499 21.7129C108.89 21.35 109.357 21.0714 109.899 20.8768C110.442 20.677 111.046 20.5771 111.712 20.5771C112.247 20.5771 112.731 20.6349 113.163 20.7506C113.603 20.861 113.977 21.0424 114.286 21.2949C114.601 21.5472 114.842 21.8758 115.007 22.2808C115.171 22.6804 115.254 23.1721 115.254 23.7558V29.2692H112.762V23.7478C112.762 23.3378 112.683 23.0143 112.525 22.7777C112.374 22.5358 112.151 22.365 111.856 22.265C111.567 22.1598 111.207 22.1073 110.774 22.1073C110.349 22.1073 109.968 22.1756 109.632 22.3123C109.295 22.4491 109.01 22.6358 108.777 22.8724C108.55 23.109 108.375 23.3824 108.252 23.6927C108.128 24.003 108.066 24.3342 108.066 24.6865ZM125.695 20.7348V29.2692H123.203V20.7348H125.695ZM123.038 18.4947C123.038 18.2056 123.162 17.9663 123.409 17.7769C123.663 17.5824 124.013 17.4851 124.459 17.4851C124.898 17.4851 125.245 17.5824 125.499 17.7769C125.753 17.9663 125.88 18.2056 125.88 18.4947C125.88 18.7787 125.753 19.0153 125.499 19.2046C125.245 19.3939 124.898 19.4885 124.459 19.4885C124.013 19.4885 123.663 19.3939 123.409 19.2046C123.162 19.0153 123.038 18.7787 123.038 18.4947ZM130.874 22.5568V29.2692H128.392V20.7348H130.73L130.874 22.5568ZM130.431 24.6865L129.628 24.6786C129.635 24.0739 129.745 23.5191 129.958 23.0143C130.177 22.5095 130.479 22.0757 130.864 21.7129C131.255 21.35 131.722 21.0714 132.264 20.8768C132.806 20.677 133.41 20.5771 134.076 20.5771C134.612 20.5771 135.096 20.6349 135.528 20.7506C135.968 20.861 136.342 21.0424 136.65 21.2949C136.966 21.5472 137.207 21.8758 137.371 22.2808C137.536 22.6804 137.618 23.1721 137.618 23.7558V29.2692H135.127V23.7478C135.127 23.3378 135.048 23.0143 134.89 22.7777C134.739 22.5358 134.516 22.365 134.221 22.265C133.932 22.1598 133.572 22.1073 133.139 22.1073C132.714 22.1073 132.333 22.1756 131.996 22.3123C131.66 22.4491 131.375 22.6358 131.142 22.8724C130.915 23.109 130.74 23.3824 130.617 23.6927C130.493 24.003 130.431 24.3342 130.431 24.6865ZM148.43 27.3762L151.004 20.7348H152.59L152.158 22.7225L149.563 29.2692H148.142L148.43 27.3762ZM146.917 20.7348L148.924 27.4077L149.089 29.2692H147.503L144.486 20.7348H146.917ZM155 27.3289L156.946 20.7348H159.365L156.359 29.2692H154.773L155 27.3289ZM152.858 20.7348L155.401 27.2973L155.72 29.2692H154.299L151.674 22.7146L151.241 20.7348H152.858ZM163.71 20.7348V29.2692H161.219V20.7348H163.71ZM161.054 18.4947C161.054 18.2056 161.178 17.9663 161.425 17.7769C161.679 17.5824 162.029 17.4851 162.475 17.4851C162.915 17.4851 163.262 17.5824 163.515 17.7769C163.769 17.9663 163.896 18.2056 163.896 18.4947C163.896 18.7787 163.769 19.0153 163.515 19.2046C163.262 19.3939 162.915 19.4885 162.475 19.4885C162.029 19.4885 161.679 19.3939 161.425 19.2046C161.178 19.0153 161.054 18.7787 161.054 18.4947ZM171.536 20.7348V22.123H165.256V20.7348H171.536ZM167.068 18.6446H169.549V26.9109C169.549 27.1737 169.597 27.3762 169.693 27.5181C169.796 27.6549 169.937 27.747 170.115 27.7943C170.294 27.8416 170.504 27.8652 170.743 27.8652C170.915 27.8652 171.079 27.8574 171.237 27.8416C171.396 27.8258 171.522 27.8101 171.618 27.7943L171.629 29.2456C171.423 29.2929 171.183 29.335 170.909 29.3718C170.641 29.4086 170.332 29.427 169.981 29.427C169.412 29.427 168.907 29.3507 168.467 29.1983C168.029 29.0405 167.686 28.7854 167.439 28.4331C167.191 28.0809 167.068 27.6129 167.068 27.0291V18.6446ZM175.902 17.1538V29.2692H173.43V17.1538H175.902ZM175.47 24.6865L174.667 24.6786C174.673 24.0897 174.78 23.5455 174.986 23.0458C175.199 22.5463 175.494 22.1125 175.871 21.7444C176.256 21.371 176.716 21.0845 177.25 20.8847C177.787 20.6796 178.38 20.5771 179.032 20.5771C179.582 20.5771 180.076 20.6349 180.515 20.7506C180.962 20.8662 181.346 21.0529 181.668 21.3106C181.991 21.563 182.235 21.8943 182.399 22.3045C182.571 22.7094 182.656 23.2037 182.656 23.7873V29.2692H180.165V23.7716C180.165 23.3614 180.087 23.0353 179.929 22.7935C179.778 22.5516 179.554 22.3781 179.258 22.2729C178.963 22.1625 178.603 22.1073 178.178 22.1073C177.731 22.1073 177.336 22.1756 176.994 22.3123C176.657 22.4491 176.375 22.6358 176.149 22.8724C175.923 23.109 175.752 23.3824 175.634 23.6927C175.524 24.003 175.47 24.3342 175.47 24.6865ZM202.179 23.4009V27.7863C201.967 28.002 201.634 28.2386 201.181 28.4963C200.735 28.7486 200.141 28.9669 199.4 29.151C198.658 29.335 197.734 29.427 196.63 29.427C195.689 29.427 194.827 29.306 194.046 29.0642C193.262 28.817 192.586 28.4568 192.017 27.9835C191.453 27.5103 191.018 26.9345 190.709 26.2562C190.4 25.5725 190.245 24.7943 190.245 23.9214V23.1248C190.245 22.2572 190.387 21.4841 190.668 20.8058C190.956 20.1222 191.369 19.5438 191.904 19.0705C192.438 18.5973 193.085 18.2397 193.839 17.9978C194.601 17.7507 195.463 17.6271 196.424 17.6271C197.653 17.6271 198.668 17.7849 199.471 18.1003C200.282 18.4106 200.907 18.8418 201.346 19.3939C201.785 19.946 202.063 20.5771 202.179 21.2869H199.647C199.565 20.8873 199.403 20.5298 199.162 20.2142C198.929 19.8987 198.593 19.6516 198.153 19.4728C197.721 19.2888 197.159 19.1967 196.465 19.1967C195.868 19.1967 195.342 19.2835 194.889 19.457C194.437 19.6306 194.059 19.8856 193.756 20.2221C193.461 20.5586 193.238 20.9688 193.088 21.4526C192.937 21.9364 192.862 22.4885 192.862 23.109V23.9214C192.862 24.5524 192.947 25.1125 193.119 25.6015C193.297 26.0905 193.551 26.5033 193.88 26.8398C194.217 27.1764 194.625 27.4314 195.106 27.6049C195.586 27.7733 196.129 27.8574 196.733 27.8574C197.323 27.8574 197.807 27.8206 198.185 27.747C198.563 27.668 198.861 27.5761 199.081 27.4708C199.307 27.3604 199.482 27.2553 199.605 27.1554V24.8758H196.486V23.4009H202.179ZM204.321 25.0967V24.9153C204.321 24.3001 204.439 23.7295 204.672 23.2037C204.904 22.6726 205.242 22.2124 205.68 21.8233C206.127 21.429 206.67 21.124 207.308 20.9083C207.953 20.6875 208.681 20.5771 209.491 20.5771C210.307 20.5771 211.035 20.6875 211.674 20.9083C212.318 21.124 212.865 21.429 213.311 21.8233C213.757 22.2124 214.097 22.6726 214.331 23.2037C214.564 23.7295 214.68 24.3001 214.68 24.9153V25.0967C214.68 25.7119 214.564 26.2825 214.331 26.8083C214.097 27.3341 213.757 27.7943 213.311 28.1886C212.865 28.5777 212.323 28.8827 211.684 29.1035C211.045 29.3192 210.321 29.427 209.511 29.427C208.694 29.427 207.964 29.3192 207.317 29.1035C206.68 28.8827 206.138 28.5777 205.691 28.1886C205.245 27.7943 204.904 27.3341 204.672 26.8083C204.439 26.2825 204.321 25.7119 204.321 25.0967ZM206.804 24.9153V25.0967C206.804 25.4806 206.855 25.8433 206.957 26.1851C207.06 26.527 207.223 26.8266 207.441 27.0843C207.661 27.3421 207.943 27.5445 208.286 27.6917C208.629 27.8389 209.038 27.9125 209.511 27.9125C209.971 27.9125 210.369 27.8389 210.705 27.6917C211.048 27.5445 211.33 27.3421 211.55 27.0843C211.77 26.8266 211.931 26.527 212.034 26.1851C212.144 25.8433 212.199 25.4806 212.199 25.0967V24.9153C212.199 24.5366 212.144 24.179 212.034 23.8426C211.931 23.5008 211.767 23.1984 211.54 22.9354C211.32 22.6726 211.038 22.4674 210.696 22.3202C210.359 22.1678 209.958 22.0915 209.491 22.0915C209.024 22.0915 208.619 22.1678 208.275 22.3202C207.939 22.4674 207.661 22.6726 207.441 22.9354C207.223 23.1984 207.06 23.5008 206.957 23.8426C206.855 24.179 206.804 24.5366 206.804 24.9153ZM216.286 25.0967V24.9153C216.286 24.3001 216.403 23.7295 216.637 23.2037C216.87 22.6726 217.206 22.2124 217.646 21.8233C218.092 21.429 218.634 21.124 219.273 20.9083C219.917 20.6875 220.645 20.5771 221.455 20.5771C222.272 20.5771 223.001 20.6875 223.638 20.9083C224.284 21.124 224.829 21.429 225.275 21.8233C225.721 22.2124 226.062 22.6726 226.295 23.2037C226.529 23.7295 226.645 24.3001 226.645 24.9153V25.0967C226.645 25.7119 226.529 26.2825 226.295 26.8083C226.062 27.3341 225.721 27.7943 225.275 28.1886C224.829 28.5777 224.287 28.8827 223.649 29.1035C223.01 29.3192 222.287 29.427 221.476 29.427C220.659 29.427 219.928 29.3192 219.283 29.1035C218.645 28.8827 218.102 28.5777 217.657 28.1886C217.209 27.7943 216.87 27.3341 216.637 26.8083C216.403 26.2825 216.286 25.7119 216.286 25.0967ZM218.768 24.9153V25.0967C218.768 25.4806 218.819 25.8433 218.922 26.1851C219.026 26.527 219.187 26.8266 219.407 27.0843C219.627 27.3421 219.907 27.5445 220.25 27.6917C220.594 27.8389 221.002 27.9125 221.476 27.9125C221.936 27.9125 222.334 27.8389 222.671 27.6917C223.014 27.5445 223.295 27.3421 223.514 27.0843C223.734 26.8266 223.896 26.527 223.999 26.1851C224.109 25.8433 224.164 25.4806 224.164 25.0967V24.9153C224.164 24.5366 224.109 24.179 223.999 23.8426C223.896 23.5008 223.731 23.1984 223.504 22.9354C223.286 22.6726 223.004 22.4674 222.66 22.3202C222.325 22.1678 221.922 22.0915 221.455 22.0915C220.988 22.0915 220.583 22.1678 220.24 22.3202C219.904 22.4674 219.627 22.6726 219.407 22.9354C219.187 23.1984 219.026 23.5008 218.922 23.8426C218.819 24.179 218.768 24.5366 218.768 24.9153ZM235.861 20.7348H238.116V29.0326C238.116 29.8003 237.903 30.4524 237.478 30.9887C237.051 31.5251 236.458 31.9326 235.696 32.2113C234.934 32.4953 234.052 32.6372 233.049 32.6372C232.624 32.6372 232.15 32.5899 231.629 32.4953C231.114 32.4006 230.614 32.2481 230.126 32.0378C229.645 31.8327 229.243 31.5619 228.921 31.2253L230.085 30.1053C230.483 30.4682 230.922 30.7337 231.403 30.9019C231.883 31.0703 232.388 31.1544 232.917 31.1544C233.486 31.1544 233.97 31.0729 234.367 30.9099C234.772 30.7521 235.086 30.5181 235.304 30.2079C235.524 29.8976 235.634 29.519 235.634 29.072V22.6673L235.861 20.7348ZM228.292 25.0967V24.931C228.292 24.2843 228.396 23.6953 228.601 23.1642C228.808 22.6278 229.103 22.1678 229.487 21.7839C229.871 21.3948 230.338 21.0977 230.888 20.8925C231.436 20.6822 232.058 20.5771 232.751 20.5771C233.473 20.5771 234.087 20.677 234.595 20.8768C235.11 21.0766 235.538 21.3632 235.881 21.7366C236.225 22.1046 236.493 22.5463 236.684 23.0616C236.884 23.5718 237.032 24.1397 237.127 24.7654V25.2939C237.038 25.9038 236.887 26.4612 236.675 26.966C236.461 27.4708 236.181 27.9073 235.83 28.2754C235.48 28.6435 235.048 28.9275 234.533 29.1273C234.025 29.327 233.424 29.427 232.73 29.427C232.051 29.427 231.436 29.3192 230.888 29.1035C230.345 28.888 229.879 28.5857 229.487 28.1965C229.103 27.8074 228.808 27.3499 228.601 26.8241C228.396 26.293 228.292 25.7171 228.292 25.0967ZM230.775 24.931V25.0967C230.775 25.4858 230.823 25.8486 230.918 26.1851C231.022 26.5217 231.175 26.8188 231.382 27.0765C231.594 27.3289 231.862 27.5286 232.185 27.6759C232.515 27.8179 232.902 27.8889 233.349 27.8889C233.932 27.8889 234.409 27.7943 234.78 27.6049C235.157 27.4157 235.446 27.1606 235.645 26.8398C235.851 26.5138 235.994 26.151 236.077 25.7514V24.3237C236.036 24.0135 235.95 23.7242 235.819 23.456C235.696 23.1879 235.529 22.9539 235.315 22.754C235.102 22.549 234.834 22.3913 234.512 22.2808C234.19 22.1651 233.808 22.1073 233.369 22.1073C232.923 22.1073 232.536 22.1809 232.206 22.3281C231.876 22.4754 231.605 22.6778 231.392 22.9354C231.186 23.1931 231.032 23.4928 230.928 23.8346C230.826 24.1765 230.775 24.5419 230.775 24.931ZM243.346 17.1538V29.2692H240.855V17.1538H243.346ZM250.977 29.427C250.153 29.427 249.408 29.3245 248.742 29.1193C248.083 28.909 247.52 28.6172 247.053 28.2438C246.594 27.8705 246.24 27.4314 245.993 26.9266C245.746 26.4218 245.622 25.8775 245.622 25.2939V24.9783C245.622 24.3106 245.749 23.7058 246.003 23.1642C246.258 22.6226 246.61 22.1598 247.064 21.776C247.517 21.3868 248.052 21.0897 248.671 20.8847C249.289 20.6796 249.957 20.5771 250.679 20.5771C251.474 20.5771 252.172 20.6796 252.768 20.8847C253.366 21.0897 253.86 21.379 254.252 21.7524C254.649 22.1205 254.945 22.5595 255.136 23.0696C255.336 23.5796 255.436 24.1422 255.436 24.7575V25.5699H246.827V24.2053H252.985V24.0555C252.971 23.7137 252.881 23.3929 252.717 23.0933C252.559 22.7935 252.315 22.5516 251.986 22.3676C251.656 22.1835 251.217 22.0915 250.668 22.0915C250.256 22.0915 249.888 22.1598 249.566 22.2965C249.251 22.4281 248.986 22.62 248.773 22.8724C248.561 23.1248 248.395 23.4297 248.279 23.7873C248.169 24.1397 248.114 24.5366 248.114 24.9783V25.2939C248.114 25.6673 248.18 26.0142 248.309 26.335C248.447 26.6506 248.647 26.9266 248.907 27.1632C249.168 27.3999 249.484 27.5866 249.855 27.7233C250.225 27.8547 250.647 27.9205 251.12 27.9205C251.718 27.9205 252.25 27.8284 252.717 27.6444C253.184 27.4603 253.589 27.2 253.932 26.8635L255.24 27.8337C254.999 28.1019 254.687 28.3595 254.303 28.6067C253.919 28.8485 253.447 29.0457 252.892 29.1983C252.343 29.3507 251.705 29.427 250.977 29.427Z" fill="#1F1F1F"/>
<path d="M294.966 1H7.03448C3.70173 1 1 2.80808 1 5.03846V41.9615C1 44.1919 3.70173 46 7.03448 46H294.966C298.298 46 301 44.1919 301 41.9615V5.03846C301 2.80808 298.298 1 294.966 1Z" stroke="#747775"/>
</svg>
