<svg width="300" height="45" viewBox="0 0 300 45" fill="none" xmlns="http://www.w3.org/2000/svg">
<rect width="300" height="45" rx="6" fill="#FEE500"/>
<g clip-path="url(#clip0_355_72)">
<path opacity="0.902" fill-rule="evenodd" clip-rule="evenodd" d="M93.5 14.444C88.79 14.444 84.5 18.23 84.5 21.433C84.5 23.833 86.058 25.95 88.431 27.208L87.433 30.874C87.344 31.199 87.713 31.457 87.996 31.27L92.373 28.365C92.742 28.401 93.118 28.422 93.5 28.422C98.47 28.422 102.5 25.293 102.5 21.433C102.5 18.23 98.47 14.444 93.5 14.444Z" fill="black"/>
</g>
<path d="M111.747 27.391V17.6615H112.907V26.4195H117.301V27.391H111.747ZM121.678 27.5215C120.663 27.5215 119.865 27.2073 119.285 26.579C118.715 25.9507 118.43 25.0662 118.43 23.9255V23.708C118.43 22.5867 118.725 21.7022 119.314 21.0545C119.914 20.3972 120.706 20.0685 121.692 20.0685C122.707 20.0685 123.505 20.3875 124.085 21.0255C124.665 21.6538 124.955 22.5335 124.955 23.6645V23.8675C124.955 24.9985 124.655 25.8927 124.056 26.55C123.456 27.1977 122.664 27.5215 121.678 27.5215ZM121.707 26.608C122.364 26.608 122.881 26.3857 123.258 25.941C123.635 25.4867 123.824 24.839 123.824 23.998V23.6355C123.824 22.6978 123.626 22.0212 123.229 21.6055C122.843 21.1898 122.325 20.982 121.678 20.982C121.02 20.982 120.503 21.2092 120.126 21.6635C119.749 22.1178 119.561 22.7607 119.561 23.592V23.9545C119.561 25.7235 120.276 26.608 121.707 26.608ZM129.133 29.5225C128.06 29.5225 127.253 29.3727 126.712 29.073C126.18 28.783 125.914 28.3722 125.914 27.8405C125.914 27.1638 126.369 26.6757 127.277 26.376V26.3035C126.794 26.1682 126.552 25.8685 126.552 25.4045C126.552 25.0082 126.823 24.6118 127.364 24.2155C126.765 23.8192 126.465 23.2198 126.465 22.4175V22.3885C126.465 21.6538 126.712 21.0835 127.205 20.6775C127.708 20.2715 128.365 20.0685 129.177 20.0685C129.515 20.0685 129.854 20.1072 130.192 20.1845H132.628V21.04H131.337C131.685 21.3687 131.859 21.8085 131.859 22.3595V22.374C131.859 23.1183 131.608 23.6887 131.105 24.085C130.603 24.4813 129.955 24.6795 129.162 24.6795C128.727 24.6795 128.317 24.6118 127.93 24.4765C127.708 24.6795 127.596 24.8728 127.596 25.0565C127.596 25.4142 127.833 25.593 128.307 25.593H130.293C131.811 25.593 132.57 26.1682 132.57 27.3185C132.57 27.9758 132.285 28.5075 131.714 28.9135C131.154 29.3195 130.293 29.5225 129.133 29.5225ZM129.104 28.6525C130.641 28.6525 131.41 28.2562 131.41 27.4635C131.41 27.1348 131.313 26.9077 131.12 26.782C130.927 26.6467 130.593 26.579 130.119 26.579H128.046C127.398 26.8013 127.074 27.1735 127.074 27.6955C127.074 28.3335 127.751 28.6525 129.104 28.6525ZM129.162 23.8095C130.216 23.8095 130.743 23.3455 130.743 22.4175V22.345C130.743 21.388 130.216 20.9095 129.162 20.9095C128.669 20.9095 128.278 21.0352 127.988 21.2865C127.708 21.5378 127.567 21.8858 127.567 22.3305V22.403C127.567 22.867 127.708 23.2198 127.988 23.4615C128.278 23.6935 128.669 23.8095 129.162 23.8095ZM134.003 27.391V20.2135H135.105V27.391H134.003ZM133.989 18.7635V17.6035H135.12V18.7635H133.989ZM137.245 27.391V20.199H138.304V20.8225H138.362C139.135 20.3198 139.961 20.0685 140.841 20.0685C141.556 20.0685 142.083 20.2232 142.422 20.5325C142.76 20.8418 142.929 21.3397 142.929 22.026V27.391H141.827V22.258C141.827 21.8133 141.726 21.4992 141.523 21.3155C141.32 21.1222 140.938 21.0255 140.377 21.0255C139.778 21.0255 139.101 21.1995 138.347 21.5475V27.391H137.245ZM150.22 27.391L148.176 20.199H149.365L150.844 25.9555H150.902L152.627 20.199H153.584L155.324 25.9555H155.382L156.861 20.199H157.92L155.875 27.391H154.759L153.091 21.91H153.048L151.351 27.391H150.22ZM159.421 27.391V20.2135H160.523V27.391H159.421ZM159.406 18.7635V17.6035H160.537V18.7635H159.406ZM164.939 27.478C163.692 27.478 163.069 26.9077 163.069 25.767V21.127H162.039V20.2135H163.069V18.5025H164.171V20.2135H166.012V21.127H164.171V25.593C164.171 25.9507 164.243 26.202 164.388 26.347C164.543 26.492 164.823 26.5645 165.229 26.5645C165.558 26.5645 165.867 26.521 166.157 26.434V27.188C165.732 27.3813 165.326 27.478 164.939 27.478ZM167.732 27.391V17.009H168.834V20.8225H168.906C169.602 20.3198 170.41 20.0685 171.328 20.0685C172.043 20.0685 172.57 20.228 172.908 20.547C173.247 20.8563 173.416 21.3542 173.416 22.0405V27.391H172.314V22.258C172.314 21.8133 172.212 21.4992 172.009 21.3155C171.806 21.1222 171.425 21.0255 170.864 21.0255C170.245 21.0255 169.569 21.2043 168.834 21.562V27.391H167.732ZM184.984 27.391L180.866 22.432L184.926 17.6615H186.159L182.215 22.316L186.333 27.391H184.984ZM179.518 27.391V17.6615H180.663V27.391H179.518ZM189.537 27.5215C188.86 27.5215 188.314 27.3523 187.899 27.014C187.493 26.666 187.29 26.1633 187.29 25.506C187.29 24.2783 188.019 23.5823 189.479 23.418L191.422 23.186V22.432C191.422 21.8907 191.292 21.5233 191.031 21.33C190.77 21.127 190.306 21.0255 189.639 21.0255C189.03 21.0255 188.459 21.1028 187.928 21.2575V20.46C188.556 20.199 189.271 20.0685 190.074 20.0685C191.717 20.0685 192.539 20.7742 192.539 22.1855V27.391H191.64L191.524 26.7675H191.451C191.035 27.2702 190.397 27.5215 189.537 27.5215ZM189.813 26.6515C190.538 26.6515 191.074 26.4775 191.422 26.1295V24.0125L189.769 24.201C189.315 24.2493 188.981 24.375 188.769 24.578C188.556 24.7713 188.45 25.071 188.45 25.477C188.45 25.8637 188.57 26.1585 188.812 26.3615C189.054 26.5548 189.387 26.6515 189.813 26.6515ZM194.622 27.391V17.009H195.724V27.391H194.622ZM198.885 27.391L195.84 23.679L198.74 20.2135H199.929L197.101 23.592L200.161 27.391H198.885ZM203.301 27.5215C202.624 27.5215 202.078 27.3523 201.662 27.014C201.256 26.666 201.053 26.1633 201.053 25.506C201.053 24.2783 201.783 23.5823 203.243 23.418L205.186 23.186V22.432C205.186 21.8907 205.055 21.5233 204.794 21.33C204.533 21.127 204.069 21.0255 203.402 21.0255C202.793 21.0255 202.223 21.1028 201.691 21.2575V20.46C202.32 20.199 203.035 20.0685 203.837 20.0685C205.481 20.0685 206.302 20.7742 206.302 22.1855V27.391H205.403L205.287 26.7675H205.215C204.799 27.2702 204.161 27.5215 203.301 27.5215ZM203.576 26.6515C204.301 26.6515 204.838 26.4775 205.186 26.1295V24.0125L203.533 24.201C203.078 24.2493 202.745 24.375 202.532 24.578C202.32 24.7713 202.213 25.071 202.213 25.477C202.213 25.8637 202.334 26.1585 202.576 26.3615C202.817 26.5548 203.151 26.6515 203.576 26.6515ZM211.184 27.5215C210.169 27.5215 209.372 27.2073 208.792 26.579C208.221 25.9507 207.936 25.0662 207.936 23.9255V23.708C207.936 22.5867 208.231 21.7022 208.821 21.0545C209.42 20.3972 210.213 20.0685 211.199 20.0685C212.214 20.0685 213.011 20.3875 213.591 21.0255C214.171 21.6538 214.461 22.5335 214.461 23.6645V23.8675C214.461 24.9985 214.161 25.8927 213.562 26.55C212.963 27.1977 212.17 27.5215 211.184 27.5215ZM211.213 26.608C211.87 26.608 212.388 26.3857 212.765 25.941C213.142 25.4867 213.33 24.839 213.33 23.998V23.6355C213.33 22.6978 213.132 22.0212 212.736 21.6055C212.349 21.1898 211.832 20.982 211.184 20.982C210.527 20.982 210.01 21.2092 209.633 21.6635C209.256 22.1178 209.067 22.7607 209.067 23.592V23.9545C209.067 25.7235 209.782 26.608 211.213 26.608Z" fill="black"/>
<defs>
<clipPath id="clip0_355_72">
<rect width="18" height="18" fill="white" transform="translate(84.5 13.5)"/>
</clipPath>
</defs>
</svg>
