<svg width="29" height="29" viewBox="0 0 29 29" fill="none" xmlns="http://www.w3.org/2000/svg">
<g clip-path="url(#clip0_357_11)">
<path d="M8.45834 16.675C7.86082 16.675 7.34899 16.4618 6.92285 16.0355C6.49651 15.6094 6.28334 15.0975 6.28334 14.5C6.28334 13.9025 6.49651 13.3906 6.92285 12.9645C7.34899 12.5382 7.86082 12.325 8.45834 12.325C9.05586 12.325 9.56769 12.5382 9.99382 12.9645C10.4202 13.3906 10.6333 13.9025 10.6333 14.5C10.6333 15.0975 10.4202 15.6094 9.99382 16.0355C9.56769 16.4618 9.05586 16.675 8.45834 16.675ZM8.45834 21.75C6.44445 21.75 4.73264 21.0451 3.32292 19.6354C1.9132 18.2257 1.20834 16.5139 1.20834 14.5C1.20834 12.4861 1.9132 10.7743 3.32292 9.36458C4.73264 7.95486 6.44445 7.25 8.45834 7.25C9.8747 7.25 11.1284 7.58904 12.2193 8.26711C13.3102 8.94499 14.1711 9.92837 14.8021 11.2173H25.5161L29 14.7015L23.8244 19.5952L21.2464 17.7021L18.6688 19.5952L16.3025 17.7827H14.8021C14.2517 18.9508 13.4344 19.904 12.3501 20.6423C11.266 21.3808 9.96875 21.75 8.45834 21.75ZM8.45834 19.736C9.6129 19.736 10.6618 19.3634 11.6051 18.6183C12.5482 17.8732 13.1608 16.9233 13.4427 15.7688H16.9973L18.6688 17.0879L21.2667 15.2048L23.6329 17.0073L26.1 14.661L24.6702 13.2312H13.4427C13.1876 12.1303 12.5952 11.1938 11.6656 10.4219C10.7357 9.64995 9.66667 9.26399 8.45834 9.26399C7.00834 9.26399 5.77312 9.77411 4.75268 10.7943C3.73244 11.8148 3.22233 13.05 3.22233 14.5C3.22233 15.95 3.73244 17.1852 4.75268 18.2057C5.77312 19.2259 7.00834 19.736 8.45834 19.736Z" fill="#CDCDCD"/>
</g>
<defs>
<clipPath id="clip0_357_11">
<rect width="29" height="29" fill="white"/>
</clipPath>
</defs>
</svg>
