<svg width="300" height="45" viewBox="0 0 300 45" fill="none" xmlns="http://www.w3.org/2000/svg">
<path d="M295.361 45H4.63918C2.08763 45 0 43.4812 0 41.625V3.375C0 1.51875 2.08763 0 4.63918 0H295.361C297.912 0 300 1.51875 300 3.375V41.625C300 43.4812 297.912 45 295.361 45Z" fill="#02C75A"/>
<path d="M52.8954 22.9751L45.9583 15.7503H40.2057V29.2503H46.2305V22.0245L53.1691 29.2503H58.9202V15.7503H52.8954V22.9751Z" fill="white"/>
<path d="M80.2915 16.3201V26.3056H88.475V27.5656H78.2348V16.3201H80.2915Z" fill="white"/>
<path d="M91.5815 24.818C91.7625 25.2016 92.0114 25.5211 92.3284 25.7788C92.6454 26.0353 93.0181 26.2333 93.4434 26.3694C93.8686 26.5055 94.3202 26.5741 94.7965 26.5741C95.2743 26.5741 95.7243 26.5055 96.1496 26.3694C96.5748 26.2333 96.9475 26.0353 97.2645 25.7788C97.5831 25.5211 97.8305 25.2016 98.0114 24.818C98.1908 24.4344 98.282 23.9968 98.282 23.5029C98.282 23.009 98.1908 22.5703 98.0114 22.1878C97.8305 21.8041 97.5831 21.4813 97.2645 21.2191C96.9475 20.9559 96.5748 20.7568 96.1496 20.6206C95.7243 20.4834 95.2743 20.4159 94.7965 20.4159C94.3202 20.4159 93.8686 20.4834 93.4434 20.6206C93.0181 20.7568 92.6454 20.9559 92.3284 21.2191C92.0114 21.4813 91.7625 21.8041 91.5815 22.1878C91.4021 22.5703 91.3109 23.009 91.3109 23.5029C91.3109 23.9968 91.4021 24.4344 91.5815 24.818ZM89.7088 21.8255C89.9393 21.3058 90.2857 20.8546 90.748 20.471C91.2104 20.0874 91.781 19.7848 92.4583 19.5654C93.1372 19.3449 93.9166 19.2346 94.7965 19.2346C95.6918 19.2346 96.4743 19.3449 97.147 19.5654C97.8166 19.7848 98.3826 20.0874 98.8449 20.471C99.3073 20.8546 99.6537 21.3058 99.8841 21.8255C100.116 22.3453 100.232 22.9044 100.232 23.5029C100.232 24.1003 100.116 24.6571 99.8841 25.1713C99.6537 25.6865 99.3073 26.1354 98.8449 26.519C98.3826 26.9026 97.8166 27.2008 97.147 27.4168C96.4743 27.6316 95.6918 27.7396 94.7965 27.7396C93.9166 27.7396 93.1372 27.6316 92.4583 27.4168C91.781 27.2008 91.2104 26.9026 90.748 26.519C90.2857 26.1354 89.9393 25.6865 89.7088 25.1713C89.4784 24.6571 89.3625 24.1003 89.3625 23.5029C89.3625 22.9044 89.4784 22.3453 89.7088 21.8255Z" fill="white"/>
<path d="M108.447 26.2035C108.871 26.0202 109.215 25.7783 109.475 25.479C109.735 25.1798 109.925 24.8412 110.049 24.4632C110.171 24.0852 110.231 23.7072 110.231 23.3292C110.231 22.9725 110.174 22.6204 110.06 22.2739C109.944 21.9274 109.76 21.6158 109.508 21.3368C109.254 21.0589 108.926 20.8362 108.523 20.6674C108.117 20.4998 107.627 20.4154 107.05 20.4154C106.458 20.4154 105.954 20.4975 105.533 20.6595C105.116 20.8226 104.773 21.0398 104.507 21.3132C104.239 21.5865 104.044 21.9015 103.921 22.2582C103.798 22.6159 103.738 22.9883 103.738 23.3764C103.738 23.7443 103.788 24.1122 103.89 24.4789C103.99 24.8468 104.162 25.1798 104.409 25.479C104.654 25.7783 104.978 26.0202 105.383 26.2035C105.787 26.388 106.291 26.4792 106.899 26.4792C107.505 26.4792 108.022 26.388 108.447 26.2035ZM110.796 29.8654C109.959 30.5269 108.645 30.8577 106.856 30.8577C106.336 30.8577 105.806 30.816 105.263 30.7317C104.723 30.6473 104.231 30.5112 103.791 30.3222C103.351 30.1332 102.988 29.8857 102.697 29.5819C102.41 29.277 102.25 28.9047 102.223 28.4637H104.063C104.077 28.7055 104.18 28.9103 104.375 29.079C104.572 29.2455 104.808 29.3828 105.091 29.4874C105.373 29.5932 105.679 29.6685 106.011 29.7158C106.344 29.763 106.661 29.7878 106.964 29.7878C107.57 29.7878 108.082 29.7102 108.501 29.5583C108.92 29.4064 109.265 29.196 109.54 28.9283C109.814 28.6617 110.013 28.3377 110.135 27.9608C110.258 27.5828 110.319 27.1665 110.319 26.7154V26.1799H110.276C109.959 26.6839 109.478 27.054 108.837 27.2903C108.193 27.5265 107.513 27.6447 106.791 27.6447C105.954 27.6447 105.224 27.5355 104.604 27.3139C103.982 27.0934 103.463 26.7964 103.045 26.424C102.626 26.0517 102.312 25.6163 102.102 25.1168C101.895 24.6184 101.788 24.0908 101.788 23.5339C101.788 23.0513 101.876 22.5552 102.048 22.0455C102.223 21.537 102.51 21.0746 102.915 20.6595C103.319 20.2444 103.852 19.9035 104.517 19.6358C105.181 19.368 105.996 19.2353 106.964 19.2353C107.671 19.2353 108.32 19.3467 108.912 19.5728C109.505 19.7989 109.964 20.1375 110.296 20.5887H110.319V19.4243H112.051V26.8729C112.051 28.206 111.632 29.2039 110.796 29.8654Z" fill="white"/>
<path d="M122.789 27.5662H120.949V19.4246H122.789V27.5662ZM120.948 16.3207H122.788V17.9586H120.948V16.3207Z" fill="white"/>
<path d="M127.378 19.4237V20.7141H127.421C128.185 19.7286 129.399 19.2347 131.058 19.2347C131.794 19.2347 132.408 19.3067 132.899 19.4541C133.39 19.6015 133.788 19.8074 134.089 20.0684C134.392 20.3316 134.606 20.6444 134.728 21.0055C134.85 21.3689 134.912 21.7705 134.912 22.2115V27.5654H133.073V22.054C133.073 21.55 132.871 21.1506 132.466 20.8559C132.06 20.5634 131.505 20.416 130.799 20.416C130.236 20.416 129.749 20.4779 129.339 20.605C128.926 20.7299 128.583 20.9087 128.31 21.1394C128.035 21.37 127.829 21.6422 127.692 21.9505C127.554 22.2599 127.486 22.5996 127.486 22.9664V27.5654H125.646V19.4237H127.378Z" fill="white"/>
<path d="M152.838 27.5657L150.564 21.0925H150.521L148.27 27.5657H146.278L142.684 19.4241H144.719L147.252 26.0863H147.295L149.547 19.4241H151.56L153.9 26.0863H153.942L156.453 19.4241H158.358L154.786 27.5657H152.838Z" fill="white"/>
<path d="M162.06 27.5662H160.221V19.4246H162.06V27.5662ZM160.221 16.3207H162.06V17.9586H160.221V16.3207Z" fill="white"/>
<path d="M169.703 19.4237V20.605H167.473V25.6607C167.473 25.8182 167.49 25.9442 167.527 26.0387C167.561 26.1332 167.631 26.2064 167.733 26.2581C167.833 26.311 167.974 26.3447 168.153 26.3616C168.334 26.3774 168.569 26.3841 168.857 26.3841H169.703V27.5654H168.296C167.818 27.5654 167.411 27.5429 167.073 27.4956C166.732 27.4484 166.457 27.3617 166.25 27.2346C166.04 27.1097 165.883 26.9309 165.784 26.7002C165.682 26.4696 165.631 26.1636 165.631 25.7856V20.605H163.728V19.4237H165.631V16.9814H167.473V19.4237H169.703Z" fill="white"/>
<path d="M173.578 16.3201V20.6198H173.62C173.765 20.3689 173.968 20.1552 174.228 19.9819C174.487 19.8098 174.778 19.6681 175.104 19.5567C175.429 19.4464 175.768 19.3654 176.122 19.3126C176.474 19.2597 176.818 19.2349 177.15 19.2349C177.886 19.2349 178.5 19.3069 178.99 19.4543C179.481 19.6017 179.878 19.8076 180.181 20.0686C180.484 20.3307 180.698 20.6446 180.82 21.0057C180.942 21.3679 181.004 21.7707 181.004 22.2106V27.5656H179.164V22.0542C179.164 21.5491 178.961 21.1508 178.557 20.8561C178.152 20.5624 177.597 20.4162 176.89 20.4162C176.326 20.4162 175.84 20.4781 175.429 20.6052C175.018 20.7301 174.674 20.9089 174.401 21.1396C174.125 21.3702 173.921 21.6413 173.784 21.9507C173.646 22.2601 173.578 22.5998 173.578 22.9666V27.5656H171.738V16.3201H173.578Z" fill="white"/>
<path d="M192.262 16.3201L200.402 25.4393H200.445V16.3201H202.394V27.5656H200.142L192.067 18.5419H192.024V27.5656H190.075V16.3201H192.262Z" fill="white"/>
<path d="M213.629 22.9196L211.052 17.6749H211.009L208.389 22.9196H213.629ZM212.2 16.3204L218.24 27.5659H215.967L214.278 24.1796H207.74L206.008 27.5659H203.908L209.927 16.3204H212.2Z" fill="white"/>
<path d="M222.505 27.5657L217.071 16.3202H219.28L223.698 26.0695H223.739L228.199 16.3202H230.343L224.844 27.5657H222.505Z" fill="white"/>
<path d="M242.661 16.3201V17.5801H234.045V21.1553H242.077V22.4153H234.045V26.3056H242.726V27.5656H231.988V16.3201H242.661Z" fill="white"/>
<path d="M252.923 21.4232C253.354 21.3703 253.733 21.268 254.058 21.1172C254.382 20.9642 254.642 20.7595 254.837 20.503C255.032 20.2442 255.131 19.9112 255.131 19.5017C255.131 18.9347 254.913 18.4735 254.481 18.1168C254.048 17.7591 253.346 17.5802 252.38 17.5802H247.272V21.502H251.557C252.035 21.502 252.49 21.4761 252.923 21.4232ZM252.49 16.3202C253.962 16.3202 255.112 16.5823 255.941 17.1077C256.772 17.6331 257.188 18.3531 257.188 19.2655C257.188 19.9483 256.974 20.5468 256.549 21.061C256.122 21.5762 255.44 21.9272 254.502 22.1162V22.1488C254.95 22.2107 255.315 22.3165 255.596 22.4627C255.876 22.6101 256.102 22.7856 256.266 22.9915C256.433 23.1951 256.557 23.4235 256.634 23.6755C256.714 23.9286 256.775 24.1907 256.82 24.463C256.847 24.7363 256.869 25.0142 256.885 25.2977C256.897 25.5812 256.934 25.8591 256.993 26.1336C257.05 26.4058 257.133 26.6657 257.242 26.9121C257.348 27.1596 257.512 27.3767 257.727 27.5657H255.434C255.289 27.4498 255.191 27.2935 255.142 27.0932C255.089 26.8941 255.058 26.6713 255.044 26.4238C255.029 26.1775 255.015 25.912 255.001 25.6285C254.986 25.345 254.944 25.0671 254.871 24.7937C254.814 24.5215 254.741 24.2605 254.653 24.0141C254.566 23.7677 254.43 23.5528 254.243 23.3683C254.055 23.185 253.809 23.0387 253.507 22.9273C253.204 22.8171 252.799 22.762 252.295 22.762H247.272V27.5657H245.215V16.3202H252.49Z" fill="white"/>
</svg>
