<svg width="40" height="40" viewBox="0 0 40 40" fill="none" xmlns="http://www.w3.org/2000/svg">
<path d="M18.6113 38.25V35.0554C14.9168 34.6665 11.8126 33.2151 9.29875 30.7013C6.78486 28.1874 5.33347 25.0832 4.94458 21.3888H1.75V18.6112H4.94458C5.33347 14.9168 6.78486 11.8126 9.29875 9.29875C11.8126 6.78486 14.9168 5.33347 18.6113 4.94458V1.75H21.3888V4.94458C25.0832 5.33347 28.1874 6.78486 30.7013 9.29875C33.2151 11.8126 34.6665 14.9168 35.0554 18.6112H38.25V21.3888H35.0554C34.6665 25.0832 33.2151 28.1874 30.7013 30.7013C28.1874 33.2151 25.0832 34.6665 21.3888 35.0554V38.25H18.6113ZM20 32.3333C23.3889 32.3333 26.2917 31.125 28.7083 28.7083C31.125 26.2917 32.3333 23.3889 32.3333 20C32.3333 16.6111 31.125 13.7083 28.7083 11.2917C26.2917 8.875 23.3889 7.66667 20 7.66667C16.6111 7.66667 13.7083 8.875 11.2917 11.2917C8.875 13.7083 7.66667 16.6111 7.66667 20C7.66667 23.3889 8.875 26.2917 11.2917 28.7083C13.7083 31.125 16.6111 32.3333 20 32.3333ZM20 26.3887C18.2222 26.3887 16.7129 25.7685 15.4721 24.5279C14.2315 23.2871 13.6113 21.7778 13.6113 20C13.6113 18.2222 14.2315 16.7129 15.4721 15.4721C16.7129 14.2315 18.2222 13.6112 20 13.6112C21.7778 13.6112 23.2871 14.2315 24.5279 15.4721C25.7685 16.7129 26.3888 18.2222 26.3888 20C26.3888 21.7778 25.7685 23.2871 24.5279 24.5279C23.2871 25.7685 21.7778 26.3887 20 26.3887ZM20 23.6113C21.0092 23.6113 21.8633 23.2617 22.5625 22.5625C23.2617 21.8633 23.6112 21.0092 23.6112 20C23.6112 18.9908 23.2617 18.1367 22.5625 17.4375C21.8633 16.7383 21.0092 16.3888 20 16.3888C18.9908 16.3888 18.1367 16.7383 17.4375 17.4375C16.7383 18.1367 16.3888 18.9908 16.3888 20C16.3888 21.0092 16.7383 21.8633 17.4375 22.5625C18.1367 23.2617 18.9908 23.6113 20 23.6113Z" fill="black" fill-opacity="0.3"/>
</svg>
